<svg xmlns="http://www.w3.org/2000/svg" width="640" height="320"><path d="M-193,-224L-53,-221L401,-219Z" fill="#dddded" stroke="#dddded" stroke-width="1.51"/><path d="M91,-212L253,-206L401,-219Z" fill="#c1cfe5" stroke="#c1cfe5" stroke-width="1.51"/><path d="M-53,-221L91,-212L401,-219Z" fill="#d0d6e9" stroke="#d0d6e9" stroke-width="1.51"/><path d="M385,532L240,548L534,533Z" fill="#3675a0" stroke="#3675a0" stroke-width="1.51"/><path d="M-193,-224L401,-219L552,-220Z" fill="#c0cfe5" stroke="#c0cfe5" stroke-width="1.51"/><path d="M686,248L691,398L833,236Z" fill="#1e74a9" stroke="#1e74a9" stroke-width="1.51"/><path d="M552,-220L701,-207L840,-216Z" fill="#90a6c9" stroke="#90a6c9" stroke-width="1.51"/><path d="M833,236L691,398L848,395Z" fill="#12689d" stroke="#12689d" stroke-width="1.51"/><path d="M691,398L680,527L848,395Z" fill="#046199" stroke="#046199" stroke-width="1.51"/><path d="M840,-216L701,-207L849,-64Z" fill="#8599b8" stroke="#8599b8" stroke-width="1.51"/><path d="M701,-207L683,-67L849,-64Z" fill="#8299be" stroke="#8299be" stroke-width="1.51"/><path d="M683,-67L700,86L849,-64Z" fill="#7291ba" stroke="#7291ba" stroke-width="1.51"/><path d="M534,533L240,548L849,549Z" fill="#166697" stroke="#166697" stroke-width="1.51"/><path d="M680,527L534,533L849,549Z" fill="#045a8d" stroke="#045a8d" stroke-width="1.51"/><path d="M848,395L680,527L849,549Z" fill="#04588a" stroke="#04588a" stroke-width="1.51"/><path d="M849,-64L700,86L856,85Z" fill="#6487ae" stroke="#6487ae" stroke-width="1.51"/><path d="M700,86L833,236L856,85Z" fill="#4d7faa" stroke="#4d7faa" stroke-width="1.51"/><path d="M833,236L848,395L856,85Z" fill="#2c6f9b" stroke="#2c6f9b" stroke-width="1.51"/><path d="M848,395L849,549L856,85Z" fill="#116192" stroke="#116192" stroke-width="1.51"/><path d="M700,86L686,248L833,236Z" fill="#407faf" stroke="#407faf" stroke-width="1.51"/><path d="M533,389L534,533L680,527Z" fill="#0f6aa2" stroke="#0f6aa2" stroke-width="1.51"/><path d="M552,-220L558,-66L683,-67Z" fill="#8aa6cf" stroke="#8aa6cf" stroke-width="1.51"/><path d="M534,248L533,389L686,248Z" fill="#2680b9" stroke="#2680b9" stroke-width="1.51"/><path d="M541,98L534,248L686,248Z" fill="#448bbf" stroke="#448bbf" stroke-width="1.51"/><path d="M686,248L533,389L691,398Z" fill="#1474b1" stroke="#1474b1" stroke-width="1.51"/><path d="M533,389L680,527L691,398Z" fill="#056aa6" stroke="#056aa6" stroke-width="1.51"/><path d="M683,-67L558,-66L700,86Z" fill="#7799c5" stroke="#7799c5" stroke-width="1.51"/><path d="M558,-66L541,98L700,86Z" fill="#6d98c7" stroke="#6d98c7" stroke-width="1.51"/><path d="M541,98L686,248L700,86Z" fill="#508cbe" stroke="#508cbe" stroke-width="1.51"/><path d="M552,-220L683,-67L701,-207Z" fill="#8ea6cd" stroke="#8ea6cd" stroke-width="1.51"/><path d="M88,522L-55,543L240,548Z" fill="#6c88ac" stroke="#6c88ac" stroke-width="1.51"/><path d="M409,399L533,389L534,248Z" fill="#2883ba" stroke="#2883ba" stroke-width="1.51"/><path d="M533,389L409,399L534,533Z" fill="#2078ae" stroke="#2078ae" stroke-width="1.51"/><path d="M381,-61L386,92L541,98Z" fill="#7caacf" stroke="#7caacf" stroke-width="1.51"/><path d="M381,225L534,248L541,98Z" fill="#4f97c4" stroke="#4f97c4" stroke-width="1.51"/><path d="M386,92L381,225L541,98Z" fill="#65a1ca" stroke="#65a1ca" stroke-width="1.51"/><path d="M381,-61L541,98L558,-66Z" fill="#80a9d0" stroke="#80a9d0" stroke-width="1.51"/><path d="M552,-220L401,-219L558,-66Z" fill="#98b6d7" stroke="#98b6d7" stroke-width="1.51"/><path d="M401,-219L381,-61L558,-66Z" fill="#97b7d7" stroke="#97b7d7" stroke-width="1.51"/><path d="M409,399L385,532L534,533Z" fill="#2a78a9" stroke="#2a78a9" stroke-width="1.51"/><path d="M381,225L409,399L534,248Z" fill="#3c90c0" stroke="#3c90c0" stroke-width="1.51"/><path d="M241,233L251,376L381,225Z" fill="#5e9dc8" stroke="#5e9dc8" stroke-width="1.51"/><path d="M251,-68L241,93L381,-61Z" fill="#9ebad9" stroke="#9ebad9" stroke-width="1.51"/><path d="M253,-206L251,-68L381,-61Z" fill="#aec3de" stroke="#aec3de" stroke-width="1.51"/><path d="M381,-61L241,93L386,92Z" fill="#8cb2d4" stroke="#8cb2d4" stroke-width="1.51"/><path d="M241,93L381,225L386,92Z" fill="#77a9cf" stroke="#77a9cf" stroke-width="1.51"/><path d="M253,-206L381,-61L401,-219Z" fill="#acc4de" stroke="#acc4de" stroke-width="1.51"/><path d="M251,376L385,532L409,399Z" fill="#4484b6" stroke="#4484b6" stroke-width="1.51"/><path d="M381,225L251,376L409,399Z" fill="#4d91c2" stroke="#4d91c2" stroke-width="1.51"/><path d="M241,93L241,233L381,225Z" fill="#74a8cf" stroke="#74a8cf" stroke-width="1.51"/><path d="M251,376L240,548L385,532Z" fill="#4e83b1" stroke="#4e83b1" stroke-width="1.51"/><path d="M102,241L241,233L241,93Z" fill="#83aed2" stroke="#83aed2" stroke-width="1.51"/><path d="M88,89L102,241L241,93Z" fill="#96b6d7" stroke="#96b6d7" stroke-width="1.51"/><path d="M93,-77L88,89L241,93Z" fill="#adc0dd" stroke="#adc0dd" stroke-width="1.51"/><path d="M88,522L240,548L251,376Z" fill="#618ab5" stroke="#618ab5" stroke-width="1.51"/><path d="M94,379L88,522L251,376Z" fill="#6c93c0" stroke="#6c93c0" stroke-width="1.51"/><path d="M241,233L102,241L251,376Z" fill="#6fa3cb" stroke="#6fa3cb" stroke-width="1.51"/><path d="M102,241L94,379L251,376Z" fill="#739fcb" stroke="#739fcb" stroke-width="1.51"/><path d="M93,-77L241,93L251,-68Z" fill="#aec1dd" stroke="#aec1dd" stroke-width="1.51"/><path d="M93,-77L251,-68L253,-206Z" fill="#bdcae3" stroke="#bdcae3" stroke-width="1.51"/><path d="M91,-212L93,-77L253,-206Z" fill="#cbd2e7" stroke="#cbd2e7" stroke-width="1.51"/><path d="M-43,389L-55,543L88,522Z" fill="#7e96bc" stroke="#7e96bc" stroke-width="1.51"/><path d="M-63,88L-56,236L88,89Z" fill="#acc1dd" stroke="#acc1dd" stroke-width="1.51"/><path d="M-66,-56L-63,88L88,89Z" fill="#c0cae3" stroke="#c0cae3" stroke-width="1.51"/><path d="M-66,-56L88,89L93,-77Z" fill="#c4cbe3" stroke="#c4cbe3" stroke-width="1.51"/><path d="M91,-212L-53,-221L93,-77Z" fill="#dadaea" stroke="#dadaea" stroke-width="1.51"/><path d="M-53,-221L-66,-56L93,-77Z" fill="#d9d8ea" stroke="#d9d8ea" stroke-width="1.51"/><path d="M-43,389L88,522L94,379Z" fill="#7b98c3" stroke="#7b98c3" stroke-width="1.51"/><path d="M-56,236L-43,389L94,379Z" fill="#89a8d0" stroke="#89a8d0" stroke-width="1.51"/><path d="M-56,236L94,379L102,241Z" fill="#88acd1" stroke="#88acd1" stroke-width="1.51"/><path d="M88,89L-56,236L102,241Z" fill="#9bb8d8" stroke="#9bb8d8" stroke-width="1.51"/><path d="M-193,-224L-209,-79L-66,-56Z" fill="#e6e3f0" stroke="#e6e3f0" stroke-width="1.51"/><path d="M-66,-56L-195,74L-63,88Z" fill="#cad1e6" stroke="#cad1e6" stroke-width="1.51"/><path d="M-195,74L-193,242L-63,88Z" fill="#b9cbe3" stroke="#b9cbe3" stroke-width="1.51"/><path d="M-63,88L-193,242L-56,236Z" fill="#aac3de" stroke="#aac3de" stroke-width="1.51"/><path d="M-193,242L-197,379L-56,236Z" fill="#9bb9d9" stroke="#9bb9d9" stroke-width="1.51"/><path d="M-197,379L-220,523L-55,543Z" fill="#8ca0c2" stroke="#8ca0c2" stroke-width="1.51"/><path d="M-193,-224L-66,-56L-53,-221Z" fill="#e8e4f1" stroke="#e8e4f1" stroke-width="1.51"/><path d="M-197,379L-55,543L-43,389Z" fill="#8aa2c7" stroke="#8aa2c7" stroke-width="1.51"/><path d="M-56,236L-197,379L-43,389Z" fill="#92afd3" stroke="#92afd3" stroke-width="1.51"/><path d="M-209,-79L-195,74L-66,-56Z" fill="#d8d9eb" stroke="#d8d9eb" stroke-width="1.51"/><path d="M-220,523L-197,379L-193,242Z" fill="#96aed4" stroke="#96aed4" stroke-width="1.51"/><path d="M-195,74L-209,-79L-193,242Z" fill="#c8d2e7" stroke="#c8d2e7" stroke-width="1.51"/><path d="M-209,-79L-220,523L-193,242Z" fill="#aac4df" stroke="#aac4df" stroke-width="1.51"/></svg>