<svg xmlns="http://www.w3.org/2000/svg" width="640" height="320"><path d="M-193,-224L-53,-221L401,-219Z" fill="#c85b4d" stroke="#c85b4d" stroke-width="1.51"/><path d="M91,-212L253,-206L401,-219Z" fill="#db877d" stroke="#db877d" stroke-width="1.51"/><path d="M-53,-221L91,-212L401,-219Z" fill="#d27365" stroke="#d27365" stroke-width="1.51"/><path d="M385,532L240,548L534,533Z" fill="#939393" stroke="#939393" stroke-width="1.51"/><path d="M-193,-224L401,-219L552,-220Z" fill="#d7867e" stroke="#d7867e" stroke-width="1.51"/><path d="M686,248L691,398L833,236Z" fill="#9b9b9b" stroke="#9b9b9b" stroke-width="1.51"/><path d="M552,-220L701,-207L840,-216Z" fill="#9a5552" stroke="#9a5552" stroke-width="1.51"/><path d="M833,236L691,398L848,395Z" fill="#838383" stroke="#838383" stroke-width="1.51"/><path d="M691,398L680,527L848,395Z" fill="#747474" stroke="#747474" stroke-width="1.51"/><path d="M840,-216L701,-207L849,-64Z" fill="#8b4b44" stroke="#8b4b44" stroke-width="1.51"/><path d="M701,-207L683,-67L849,-64Z" fill="#a1655a" stroke="#a1655a" stroke-width="1.51"/><path d="M683,-67L700,86L849,-64Z" fill="#ae8777" stroke="#ae8777" stroke-width="1.51"/><path d="M534,533L240,548L849,549Z" fill="#7c7c7c" stroke="#7c7c7c" stroke-width="1.51"/><path d="M680,527L534,533L849,549Z" fill="#626262" stroke="#626262" stroke-width="1.51"/><path d="M848,395L680,527L849,549Z" fill="#585858" stroke="#585858" stroke-width="1.51"/><path d="M849,-64L700,86L856,85Z" fill="#a0877a" stroke="#a0877a" stroke-width="1.51"/><path d="M700,86L833,236L856,85Z" fill="#a39e9c" stroke="#a39e9c" stroke-width="1.51"/><path d="M833,236L848,395L856,85Z" fill="#898989" stroke="#898989" stroke-width="1.51"/><path d="M848,395L849,549L856,85Z" fill="#747474" stroke="#747474" stroke-width="1.51"/><path d="M700,86L686,248L833,236Z" fill="#acacac" stroke="#acacac" stroke-width="1.51"/><path d="M533,389L534,533L680,527Z" fill="#898989" stroke="#898989" stroke-width="1.51"/><path d="M552,-220L558,-66L683,-67Z" fill="#c58579" stroke="#c58579" stroke-width="1.51"/><path d="M534,248L533,389L686,248Z" fill="#bebebe" stroke="#bebebe" stroke-width="1.51"/><path d="M541,98L534,248L686,248Z" fill="#cfcfcf" stroke="#cfcfcf" stroke-width="1.51"/><path d="M686,248L533,389L691,398Z" fill="#a8a8a8" stroke="#a8a8a8" stroke-width="1.51"/><path d="M533,389L680,527L691,398Z" fill="#8e8e8e" stroke="#8e8e8e" stroke-width="1.51"/><path d="M683,-67L558,-66L700,86Z" fill="#c79f8d" stroke="#c79f8d" stroke-width="1.51"/><path d="M558,-66L541,98L700,86Z" fill="#d3b9ac" stroke="#d3b9ac" stroke-width="1.51"/><path d="M541,98L686,248L700,86Z" fill="#cac7c5" stroke="#cac7c5" stroke-width="1.51"/><path d="M552,-220L683,-67L701,-207Z" fill="#b26d65" stroke="#b26d65" stroke-width="1.51"/><path d="M88,522L-55,543L240,548Z" fill="#987464" stroke="#987464" stroke-width="1.51"/><path d="M409,399L533,389L534,248Z" fill="#c3c3c3" stroke="#c3c3c3" stroke-width="1.51"/><path d="M533,389L409,399L534,533Z" fill="#a7a7a7" stroke="#a7a7a7" stroke-width="1.51"/><path d="M381,-61L386,92L541,98Z" fill="#efd6c9" stroke="#efd6c9" stroke-width="1.51"/><path d="M381,225L534,248L541,98Z" fill="#e2e2e2" stroke="#e2e2e2" stroke-width="1.51"/><path d="M386,92L381,225L541,98Z" fill="#f0ebe9" stroke="#f0ebe9" stroke-width="1.51"/><path d="M381,-61L541,98L558,-66Z" fill="#e6bdac" stroke="#e6bdac" stroke-width="1.51"/><path d="M552,-220L401,-219L558,-66Z" fill="#cf867e" stroke="#cf867e" stroke-width="1.51"/><path d="M401,-219L381,-61L558,-66Z" fill="#e19e92" stroke="#e19e92" stroke-width="1.51"/><path d="M409,399L385,532L534,533Z" fill="#9e9e9e" stroke="#9e9e9e" stroke-width="1.51"/><path d="M381,225L409,399L534,248Z" fill="#d7d7d7" stroke="#d7d7d7" stroke-width="1.51"/><path d="M241,233L251,376L381,225Z" fill="#e9e5e2" stroke="#e9e5e2" stroke-width="1.51"/><path d="M251,-68L241,93L381,-61Z" fill="#fdd0bb" stroke="#fdd0bb" stroke-width="1.51"/><path d="M253,-206L251,-68L381,-61Z" fill="#f1ab9c" stroke="#f1ab9c" stroke-width="1.51"/><path d="M381,-61L241,93L386,92Z" fill="#fde2d6" stroke="#fde2d6" stroke-width="1.51"/><path d="M241,93L381,225L386,92Z" fill="#fdf8f5" stroke="#fdf8f5" stroke-width="1.51"/><path d="M253,-206L381,-61L401,-219Z" fill="#e79d93" stroke="#e79d93" stroke-width="1.51"/><path d="M251,376L385,532L409,399Z" fill="#bcbcbc" stroke="#bcbcbc" stroke-width="1.51"/><path d="M381,225L251,376L409,399Z" fill="#dadada" stroke="#dadada" stroke-width="1.51"/><path d="M241,93L241,233L381,225Z" fill="#fbf6f3" stroke="#fbf6f3" stroke-width="1.51"/><path d="M251,376L240,548L385,532Z" fill="#aeaaa8" stroke="#aeaaa8" stroke-width="1.51"/><path d="M102,241L241,233L241,93Z" fill="#fae7dc" stroke="#fae7dc" stroke-width="1.51"/><path d="M88,89L102,241L241,93Z" fill="#fedccc" stroke="#fedccc" stroke-width="1.51"/><path d="M93,-77L88,89L241,93Z" fill="#fbc3a8" stroke="#fbc3a8" stroke-width="1.51"/><path d="M88,522L240,548L251,376Z" fill="#ae9d93" stroke="#ae9d93" stroke-width="1.51"/><path d="M94,379L88,522L251,376Z" fill="#c1a598" stroke="#c1a598" stroke-width="1.51"/><path d="M241,233L102,241L251,376Z" fill="#e8d6cc" stroke="#e8d6cc" stroke-width="1.51"/><path d="M102,241L94,379L251,376Z" fill="#ddc1b3" stroke="#ddc1b3" stroke-width="1.51"/><path d="M93,-77L241,93L251,-68Z" fill="#fac0a4" stroke="#fac0a4" stroke-width="1.51"/><path d="M93,-77L251,-68L253,-206Z" fill="#ec9c86" stroke="#ec9c86" stroke-width="1.51"/><path d="M91,-212L93,-77L253,-206Z" fill="#e0816d" stroke="#e0816d" stroke-width="1.51"/><path d="M-43,389L-55,543L88,522Z" fill="#a36e60" stroke="#a36e60" stroke-width="1.51"/><path d="M-63,88L-56,236L88,89Z" fill="#f4b4a3" stroke="#f4b4a3" stroke-width="1.51"/><path d="M-66,-56L-63,88L88,89Z" fill="#ee9d83" stroke="#ee9d83" stroke-width="1.51"/><path d="M-66,-56L88,89L93,-77Z" fill="#f09b7a" stroke="#f09b7a" stroke-width="1.51"/><path d="M91,-212L-53,-221L93,-77Z" fill="#d66653" stroke="#d66653" stroke-width="1.51"/><path d="M-53,-221L-66,-56L93,-77Z" fill="#d96752" stroke="#d96752" stroke-width="1.51"/><path d="M-43,389L88,522L94,379Z" fill="#bc8d7d" stroke="#bc8d7d" stroke-width="1.51"/><path d="M-56,236L-43,389L94,379Z" fill="#d49b8c" stroke="#d49b8c" stroke-width="1.51"/><path d="M-56,236L94,379L102,241Z" fill="#e3b2a1" stroke="#e3b2a1" stroke-width="1.51"/><path d="M88,89L-56,236L102,241Z" fill="#f6c3b2" stroke="#f6c3b2" stroke-width="1.51"/><path d="M-193,-224L-209,-79L-66,-56Z" fill="#c33f3a" stroke="#c33f3a" stroke-width="1.51"/><path d="M-66,-56L-195,74L-63,88Z" fill="#e28470" stroke="#e28470" stroke-width="1.51"/><path d="M-195,74L-193,242L-63,88Z" fill="#e39188" stroke="#e39188" stroke-width="1.51"/><path d="M-63,88L-193,242L-56,236Z" fill="#e69c92" stroke="#e69c92" stroke-width="1.51"/><path d="M-193,242L-197,379L-56,236Z" fill="#ce817b" stroke="#ce817b" stroke-width="1.51"/><path d="M-197,379L-220,523L-55,543Z" fill="#924c48" stroke="#924c48" stroke-width="1.51"/><path d="M-193,-224L-66,-56L-53,-221Z" fill="#c13c38" stroke="#c13c38" stroke-width="1.51"/><path d="M-197,379L-55,543L-43,389Z" fill="#aa675e" stroke="#aa675e" stroke-width="1.51"/><path d="M-56,236L-197,379L-43,389Z" fill="#c98379" stroke="#c98379" stroke-width="1.51"/><path d="M-209,-79L-195,74L-66,-56Z" fill="#d66755" stroke="#d66755" stroke-width="1.51"/><path d="M-220,523L-197,379L-193,242Z" fill="#a56361" stroke="#a56361" stroke-width="1.51"/><path d="M-195,74L-209,-79L-193,242Z" fill="#d17f74" stroke="#d17f74" stroke-width="1.51"/><path d="M-209,-79L-220,523L-193,242Z" fill="#c78280" stroke="#c78280" stroke-width="1.51"/></svg>