<svg xmlns="http://www.w3.org/2000/svg" width="640" height="320"><path d="M-173,-237L-50,-230L411,-225Z" fill="#d5eebd" stroke="#d5eebd" stroke-width="1.51"/><path d="M-50,-230L85,-208L411,-225Z" fill="#c1e6bd" stroke="#c1e6bd" stroke-width="1.51"/><path d="M370,528L234,569L519,531Z" fill="#32689f" stroke="#32689f" stroke-width="1.51"/><path d="M-173,-237L411,-225L563,-226Z" fill="#b0dcc3" stroke="#b0dcc3" stroke-width="1.51"/><path d="M563,-226L710,-195L833,-217Z" fill="#9a9bb0" stroke="#9a9bb0" stroke-width="1.51"/><path d="M815,239L686,418L853,412Z" fill="#264f9e" stroke="#264f9e" stroke-width="1.51"/><path d="M833,-217L710,-195L856,-62Z" fill="#908ca0" stroke="#908ca0" stroke-width="1.51"/><path d="M519,531L234,569L856,570Z" fill="#215094" stroke="#215094" stroke-width="1.51"/><path d="M659,515L519,531L856,570Z" fill="#213c8e" stroke="#213c8e" stroke-width="1.51"/><path d="M853,412L686,418L856,570Z" fill="#233890" stroke="#233890" stroke-width="1.51"/><path d="M686,418L659,515L856,570Z" fill="#253995" stroke="#253995" stroke-width="1.51"/><path d="M856,-62L707,89L872,85Z" fill="#5c7ba0" stroke="#5c7ba0" stroke-width="1.51"/><path d="M707,89L815,239L872,85Z" fill="#4373a5" stroke="#4373a5" stroke-width="1.51"/><path d="M815,239L853,412L872,85Z" fill="#285f9b" stroke="#285f9b" stroke-width="1.51"/><path d="M853,412L856,570L872,85Z" fill="#1e488e" stroke="#1e488e" stroke-width="1.51"/><path d="M672,269L686,418L815,239Z" fill="#2960a9" stroke="#2960a9" stroke-width="1.51"/><path d="M710,-195L665,-69L856,-62Z" fill="#8b90a8" stroke="#8b90a8" stroke-width="1.51"/><path d="M665,-69L707,89L856,-62Z" fill="#7388a9" stroke="#7388a9" stroke-width="1.51"/><path d="M707,89L672,269L815,239Z" fill="#3873ae" stroke="#3873ae" stroke-width="1.51"/><path d="M85,-208L266,-191L411,-225Z" fill="#b1ddbf" stroke="#b1ddbf" stroke-width="1.51"/><path d="M563,-226L579,-67L665,-69Z" fill="#8fa7b1" stroke="#8fa7b1" stroke-width="1.51"/><path d="M672,269L517,395L686,418Z" fill="#2363aa" stroke="#2363aa" stroke-width="1.51"/><path d="M665,-69L579,-67L707,89Z" fill="#7396af" stroke="#7396af" stroke-width="1.51"/><path d="M579,-67L536,119L707,89Z" fill="#5b96b3" stroke="#5b96b3" stroke-width="1.51"/><path d="M536,119L672,269L707,89Z" fill="#3986b5" stroke="#3986b5" stroke-width="1.51"/><path d="M563,-226L665,-69L710,-195Z" fill="#96a2ae" stroke="#96a2ae" stroke-width="1.51"/><path d="M536,119L518,268L672,269Z" fill="#2d88b9" stroke="#2d88b9" stroke-width="1.51"/><path d="M518,268L517,395L672,269Z" fill="#2377b4" stroke="#2377b4" stroke-width="1.51"/><path d="M517,395L659,515L686,418Z" fill="#2554a3" stroke="#2554a3" stroke-width="1.51"/><path d="M517,395L519,531L659,515Z" fill="#2856a4" stroke="#2856a4" stroke-width="1.51"/><path d="M361,-53L374,104L536,119Z" fill="#5bb3bf" stroke="#5bb3bf" stroke-width="1.51"/><path d="M361,-53L536,119L579,-67Z" fill="#6fb0bb" stroke="#6fb0bb" stroke-width="1.51"/><path d="M563,-226L411,-225L579,-67Z" fill="#9abab7" stroke="#9abab7" stroke-width="1.51"/><path d="M411,-225L361,-53L579,-67Z" fill="#92c2bb" stroke="#92c2bb" stroke-width="1.51"/><path d="M517,395L431,421L519,531Z" fill="#2968ad" stroke="#2968ad" stroke-width="1.51"/><path d="M431,421L517,395L518,268Z" fill="#237ab5" stroke="#237ab5" stroke-width="1.51"/><path d="M361,212L518,268L536,119Z" fill="#2c9cc2" stroke="#2c9cc2" stroke-width="1.51"/><path d="M374,104L361,212L536,119Z" fill="#3eaac2" stroke="#3eaac2" stroke-width="1.51"/><path d="M361,212L431,421L518,268Z" fill="#258ebe" stroke="#258ebe" stroke-width="1.51"/><path d="M431,421L370,528L519,531Z" fill="#3067ab" stroke="#3067ab" stroke-width="1.51"/><path d="M266,-191L361,-53L411,-225Z" fill="#a0d1bc" stroke="#a0d1bc" stroke-width="1.51"/><path d="M261,364L370,528L431,421Z" fill="#387bb1" stroke="#387bb1" stroke-width="1.51"/><path d="M361,212L261,364L431,421Z" fill="#3392bb" stroke="#3392bb" stroke-width="1.51"/><path d="M236,232L261,364L361,212Z" fill="#3ea6c1" stroke="#3ea6c1" stroke-width="1.51"/><path d="M260,-73L235,105L361,-53Z" fill="#80cbbd" stroke="#80cbbd" stroke-width="1.51"/><path d="M266,-191L260,-73L361,-53Z" fill="#9bd4bc" stroke="#9bd4bc" stroke-width="1.51"/><path d="M261,364L234,569L370,528Z" fill="#4678ad" stroke="#4678ad" stroke-width="1.51"/><path d="M361,-53L235,105L374,104Z" fill="#63c0c0" stroke="#63c0c0" stroke-width="1.51"/><path d="M235,105L361,212L374,104Z" fill="#48b7c3" stroke="#48b7c3" stroke-width="1.51"/><path d="M235,105L236,232L361,212Z" fill="#4bb5c3" stroke="#4bb5c3" stroke-width="1.51"/><path d="M78,503L-54,556L234,569Z" fill="#6c7f9b" stroke="#6c7f9b" stroke-width="1.51"/><path d="M92,-95L78,96L235,105Z" fill="#8dd2ba" stroke="#8dd2ba" stroke-width="1.51"/><path d="M92,-95L235,105L260,-73Z" fill="#93d3ba" stroke="#93d3ba" stroke-width="1.51"/><path d="M78,503L234,569L261,364Z" fill="#5a80ab" stroke="#5a80ab" stroke-width="1.51"/><path d="M94,372L78,503L261,364Z" fill="#6491b0" stroke="#6491b0" stroke-width="1.51"/><path d="M236,232L113,250L261,364Z" fill="#54aabe" stroke="#54aabe" stroke-width="1.51"/><path d="M113,250L94,372L261,364Z" fill="#60a2b8" stroke="#60a2b8" stroke-width="1.51"/><path d="M92,-95L260,-73L266,-191Z" fill="#abdbb8" stroke="#abdbb8" stroke-width="1.51"/><path d="M85,-208L92,-95L266,-191Z" fill="#bde3b6" stroke="#bde3b6" stroke-width="1.51"/><path d="M78,96L113,250L235,105Z" fill="#70c5bf" stroke="#70c5bf" stroke-width="1.51"/><path d="M235,105L113,250L236,232Z" fill="#5cb9c0" stroke="#5cb9c0" stroke-width="1.51"/><path d="M-83,-43L78,96L92,-95Z" fill="#b6e1b6" stroke="#b6e1b6" stroke-width="1.51"/><path d="M-24,395L78,503L94,372Z" fill="#7c96ad" stroke="#7c96ad" stroke-width="1.51"/><path d="M-57,238L-24,395L94,372Z" fill="#87adb5" stroke="#87adb5" stroke-width="1.51"/><path d="M-57,238L94,372L113,250Z" fill="#7fb5bb" stroke="#7fb5bb" stroke-width="1.51"/><path d="M78,96L-57,238L113,250Z" fill="#87c6bd" stroke="#87c6bd" stroke-width="1.51"/><path d="M-83,-43L-73,92L78,96Z" fill="#acddb7" stroke="#acddb7" stroke-width="1.51"/><path d="M-73,92L-57,238L78,96Z" fill="#99d3bc" stroke="#99d3bc" stroke-width="1.51"/><path d="M85,-208L-50,-230L92,-95Z" fill="#d5eeb3" stroke="#d5eeb3" stroke-width="1.51"/><path d="M-50,-230L-83,-43L92,-95Z" fill="#d6eeb3" stroke="#d6eeb3" stroke-width="1.51"/><path d="M-24,395L-54,556L78,503Z" fill="#868da8" stroke="#868da8" stroke-width="1.51"/><path d="M-174,253L-184,372L-57,238Z" fill="#9dbfba" stroke="#9dbfba" stroke-width="1.51"/><path d="M-184,372L-243,506L-54,556Z" fill="#9994ab" stroke="#9994ab" stroke-width="1.51"/><path d="M-213,-100L-83,-43L-50,-230Z" fill="#e2f4b2" stroke="#e2f4b2" stroke-width="1.51"/><path d="M-173,-237L-213,-100L-50,-230Z" fill="#eff9b5" stroke="#eff9b5" stroke-width="1.51"/><path d="M-184,372L-54,556L-24,395Z" fill="#929aab" stroke="#929aab" stroke-width="1.51"/><path d="M-57,238L-184,372L-24,395Z" fill="#95b1b5" stroke="#95b1b5" stroke-width="1.51"/><path d="M-83,-43L-180,59L-73,92Z" fill="#bbe3b6" stroke="#bbe3b6" stroke-width="1.51"/><path d="M-73,92L-174,253L-57,238Z" fill="#9fcfbc" stroke="#9fcfbc" stroke-width="1.51"/><path d="M-180,59L-174,253L-73,92Z" fill="#abdabc" stroke="#abdabc" stroke-width="1.51"/><path d="M-213,-100L-180,59L-83,-43Z" fill="#d2edb8" stroke="#d2edb8" stroke-width="1.51"/><path d="M-180,59L-243,506L-174,253Z" fill="#a0c4c3" stroke="#a0c4c3" stroke-width="1.51"/><path d="M-243,506L-184,372L-174,253Z" fill="#9cabb9" stroke="#9cabb9" stroke-width="1.51"/><path d="M-213,-100L-243,506L-180,59Z" fill="#abd9c6" stroke="#abd9c6" stroke-width="1.51"/></svg>