<svg xmlns="http://www.w3.org/2000/svg" width="640" height="320"><path d="M-173,-237L-50,-230L411,-225Z" fill="#d36b9f" stroke="#d36b9f" stroke-width="1.51"/><path d="M-50,-230L85,-208L411,-225Z" fill="#dc7dab" stroke="#dc7dab" stroke-width="1.51"/><path d="M370,528L234,569L519,531Z" fill="#9bbd81" stroke="#9bbd81" stroke-width="1.51"/><path d="M-173,-237L411,-225L563,-226Z" fill="#dc8caf" stroke="#dc8caf" stroke-width="1.51"/><path d="M563,-226L710,-195L833,-217Z" fill="#a67a5f" stroke="#a67a5f" stroke-width="1.51"/><path d="M815,239L686,418L853,412Z" fill="#81b850" stroke="#81b850" stroke-width="1.51"/><path d="M833,-217L710,-195L856,-62Z" fill="#9a7a5f" stroke="#9a7a5f" stroke-width="1.51"/><path d="M519,531L234,569L856,570Z" fill="#7fb159" stroke="#7fb159" stroke-width="1.51"/><path d="M659,515L519,531L856,570Z" fill="#62a230" stroke="#62a230" stroke-width="1.51"/><path d="M853,412L686,418L856,570Z" fill="#5d9f2b" stroke="#5d9f2b" stroke-width="1.51"/><path d="M686,418L659,515L856,570Z" fill="#61a22e" stroke="#61a22e" stroke-width="1.51"/><path d="M856,-62L707,89L872,85Z" fill="#a5b084" stroke="#a5b084" stroke-width="1.51"/><path d="M707,89L815,239L872,85Z" fill="#a7c28c" stroke="#a7c28c" stroke-width="1.51"/><path d="M815,239L853,412L872,85Z" fill="#93ba77" stroke="#93ba77" stroke-width="1.51"/><path d="M853,412L856,570L872,85Z" fill="#74a94b" stroke="#74a94b" stroke-width="1.51"/><path d="M672,269L686,418L815,239Z" fill="#9cca6b" stroke="#9cca6b" stroke-width="1.51"/><path d="M710,-195L665,-69L856,-62Z" fill="#aa9574" stroke="#aa9574" stroke-width="1.51"/><path d="M665,-69L707,89L856,-62Z" fill="#b1b288" stroke="#b1b288" stroke-width="1.51"/><path d="M707,89L672,269L815,239Z" fill="#afd08d" stroke="#afd08d" stroke-width="1.51"/><path d="M85,-208L266,-191L411,-225Z" fill="#e38eb4" stroke="#e38eb4" stroke-width="1.51"/><path d="M563,-226L579,-67L665,-69Z" fill="#c6a68e" stroke="#c6a68e" stroke-width="1.51"/><path d="M672,269L517,395L686,418Z" fill="#a2d26c" stroke="#a2d26c" stroke-width="1.51"/><path d="M665,-69L579,-67L707,89Z" fill="#c4c199" stroke="#c4c199" stroke-width="1.51"/><path d="M579,-67L536,119L707,89Z" fill="#d1d5ab" stroke="#d1d5ab" stroke-width="1.51"/><path d="M536,119L672,269L707,89Z" fill="#c7e0a9" stroke="#c7e0a9" stroke-width="1.51"/><path d="M563,-226L665,-69L710,-195Z" fill="#b99077" stroke="#b99077" stroke-width="1.51"/><path d="M536,119L518,268L672,269Z" fill="#cfe9ae" stroke="#cfe9ae" stroke-width="1.51"/><path d="M518,268L517,395L672,269Z" fill="#bee390" stroke="#bee390" stroke-width="1.51"/><path d="M517,395L659,515L686,418Z" fill="#8ac251" stroke="#8ac251" stroke-width="1.51"/><path d="M517,395L519,531L659,515Z" fill="#8dc15a" stroke="#8dc15a" stroke-width="1.51"/><path d="M361,-53L374,104L536,119Z" fill="#f2e8e1" stroke="#f2e8e1" stroke-width="1.51"/><path d="M361,-53L536,119L579,-67Z" fill="#e5d6c8" stroke="#e5d6c8" stroke-width="1.51"/><path d="M563,-226L411,-225L579,-67Z" fill="#d29c97" stroke="#d29c97" stroke-width="1.51"/><path d="M411,-225L361,-53L579,-67Z" fill="#e3b5bb" stroke="#e3b5bb" stroke-width="1.51"/><path d="M517,395L431,421L519,531Z" fill="#a5d077" stroke="#a5d077" stroke-width="1.51"/><path d="M431,421L517,395L518,268Z" fill="#c0e394" stroke="#c0e394" stroke-width="1.51"/><path d="M361,212L518,268L536,119Z" fill="#e5f3d1" stroke="#e5f3d1" stroke-width="1.51"/><path d="M374,104L361,212L536,119Z" fill="#f0f4e6" stroke="#f0f4e6" stroke-width="1.51"/><path d="M361,212L431,421L518,268Z" fill="#daf0bc" stroke="#daf0bc" stroke-width="1.51"/><path d="M431,421L370,528L519,531Z" fill="#a3c97e" stroke="#a3c97e" stroke-width="1.51"/><path d="M266,-191L361,-53L411,-225Z" fill="#e8a7c1" stroke="#e8a7c1" stroke-width="1.51"/><path d="M261,364L370,528L431,421Z" fill="#b9d796" stroke="#b9d796" stroke-width="1.51"/><path d="M361,212L261,364L431,421Z" fill="#d9edbc" stroke="#d9edbc" stroke-width="1.51"/><path d="M236,232L261,364L361,212Z" fill="#ebf1db" stroke="#ebf1db" stroke-width="1.51"/><path d="M260,-73L235,105L361,-53Z" fill="#f7d6e9" stroke="#f7d6e9" stroke-width="1.51"/><path d="M266,-191L260,-73L361,-53Z" fill="#eeb7d2" stroke="#eeb7d2" stroke-width="1.51"/><path d="M261,364L234,569L370,528Z" fill="#afc991" stroke="#afc991" stroke-width="1.51"/><path d="M361,-53L235,105L374,104Z" fill="#f9e8f1" stroke="#f9e8f1" stroke-width="1.51"/><path d="M235,105L361,212L374,104Z" fill="#f8f5f6" stroke="#f8f5f6" stroke-width="1.51"/><path d="M235,105L236,232L361,212Z" fill="#f6f3f1" stroke="#f6f3f1" stroke-width="1.51"/><path d="M78,503L-54,556L234,569Z" fill="#a0a17e" stroke="#a0a17e" stroke-width="1.51"/><path d="M92,-95L78,96L235,105Z" fill="#f8cde5" stroke="#f8cde5" stroke-width="1.51"/><path d="M92,-95L235,105L260,-73Z" fill="#f7cae4" stroke="#f7cae4" stroke-width="1.51"/><path d="M78,503L234,569L261,364Z" fill="#b4c290" stroke="#b4c290" stroke-width="1.51"/><path d="M94,372L78,503L261,364Z" fill="#c5ca9b" stroke="#c5ca9b" stroke-width="1.51"/><path d="M236,232L113,250L261,364Z" fill="#eae8d3" stroke="#eae8d3" stroke-width="1.51"/><path d="M113,250L94,372L261,364Z" fill="#dedbbc" stroke="#dedbbc" stroke-width="1.51"/><path d="M92,-95L260,-73L266,-191Z" fill="#eea9cb" stroke="#eea9cb" stroke-width="1.51"/><path d="M85,-208L92,-95L266,-191Z" fill="#e78eba" stroke="#e78eba" stroke-width="1.51"/><path d="M78,96L113,250L235,105Z" fill="#f8e1ed" stroke="#f8e1ed" stroke-width="1.51"/><path d="M235,105L113,250L236,232Z" fill="#f7eaeb" stroke="#f7eaeb" stroke-width="1.51"/><path d="M-83,-43L78,96L92,-95Z" fill="#eeabd1" stroke="#eeabd1" stroke-width="1.51"/><path d="M-24,395L78,503L94,372Z" fill="#beb58d" stroke="#beb58d" stroke-width="1.51"/><path d="M-57,238L-24,395L94,372Z" fill="#d5bba6" stroke="#d5bba6" stroke-width="1.51"/><path d="M-57,238L94,372L113,250Z" fill="#e3cbc1" stroke="#e3cbc1" stroke-width="1.51"/><path d="M78,96L-57,238L113,250Z" fill="#f0cddb" stroke="#f0cddb" stroke-width="1.51"/><path d="M-83,-43L-73,92L78,96Z" fill="#eeabce" stroke="#eeabce" stroke-width="1.51"/><path d="M-73,92L-57,238L78,96Z" fill="#efbbd5" stroke="#efbbd5" stroke-width="1.51"/><path d="M85,-208L-50,-230L92,-95Z" fill="#de72aa" stroke="#de72aa" stroke-width="1.51"/><path d="M-50,-230L-83,-43L92,-95Z" fill="#df79af" stroke="#df79af" stroke-width="1.51"/><path d="M-24,395L-54,556L78,503Z" fill="#aa9b79" stroke="#aa9b79" stroke-width="1.51"/><path d="M-174,253L-184,372L-57,238Z" fill="#d6999c" stroke="#d6999c" stroke-width="1.51"/><path d="M-184,372L-243,506L-54,556Z" fill="#a1755c" stroke="#a1755c" stroke-width="1.51"/><path d="M-213,-100L-83,-43L-50,-230Z" fill="#d5599a" stroke="#d5599a" stroke-width="1.51"/><path d="M-173,-237L-213,-100L-50,-230Z" fill="#c82c83" stroke="#c82c83" stroke-width="1.51"/><path d="M-184,372L-54,556L-24,395Z" fill="#b19070" stroke="#b19070" stroke-width="1.51"/><path d="M-57,238L-184,372L-24,395Z" fill="#cfa394" stroke="#cfa394" stroke-width="1.51"/><path d="M-83,-43L-180,59L-73,92Z" fill="#e78fbb" stroke="#e78fbb" stroke-width="1.51"/><path d="M-73,92L-174,253L-57,238Z" fill="#e6a7be" stroke="#e6a7be" stroke-width="1.51"/><path d="M-180,59L-174,253L-73,92Z" fill="#e798bb" stroke="#e798bb" stroke-width="1.51"/><path d="M-213,-100L-180,59L-83,-43Z" fill="#dd71a9" stroke="#dd71a9" stroke-width="1.51"/><path d="M-180,59L-243,506L-174,253Z" fill="#cf9096" stroke="#cf9096" stroke-width="1.51"/><path d="M-243,506L-184,372L-174,253Z" fill="#b4846f" stroke="#b4846f" stroke-width="1.51"/><path d="M-213,-100L-243,506L-180,59Z" fill="#d890ae" stroke="#d890ae" stroke-width="1.51"/></svg>