<svg xmlns="http://www.w3.org/2000/svg" width="640" height="320"><path d="M-212,-216L-60,-210L99,-221Z" fill="#dce8f2" stroke="#dce8f2" stroke-width="1.51"/><path d="M241,528L94,541L388,534Z" fill="#88629d" stroke="#88629d" stroke-width="1.51"/><path d="M99,-221L252,-215L397,-221Z" fill="#bfcce3" stroke="#bfcce3" stroke-width="1.51"/><path d="M388,534L94,541L547,537Z" fill="#815495" stroke="#815495" stroke-width="1.51"/><path d="M397,-221L548,-213L696,-218Z" fill="#baa2cf" stroke="#baa2cf" stroke-width="1.51"/><path d="M695,378L696,528L837,383Z" fill="#852789" stroke="#852789" stroke-width="1.51"/><path d="M695,378L837,383L841,233Z" fill="#82378e" stroke="#82378e" stroke-width="1.51"/><path d="M691,238L695,378L841,233Z" fill="#894698" stroke="#894698" stroke-width="1.51"/><path d="M693,78L691,238L841,233Z" fill="#8c5ba2" stroke="#8c5ba2" stroke-width="1.51"/><path d="M693,78L841,233L844,87Z" fill="#8a5f9f" stroke="#8a5f9f" stroke-width="1.51"/><path d="M689,-60L693,78L844,87Z" fill="#9874ae" stroke="#9874ae" stroke-width="1.51"/><path d="M696,528L547,537L851,533Z" fill="#7b1c7c" stroke="#7b1c7c" stroke-width="1.51"/><path d="M837,383L696,528L851,533Z" fill="#7d147a" stroke="#7d147a" stroke-width="1.51"/><path d="M841,233L837,383L851,533Z" fill="#782880" stroke="#782880" stroke-width="1.51"/><path d="M844,87L841,233L851,533Z" fill="#7a3d88" stroke="#7a3d88" stroke-width="1.51"/><path d="M689,-60L844,87L852,-71Z" fill="#9a73a9" stroke="#9a73a9" stroke-width="1.51"/><path d="M850,-209L696,-218L852,-71Z" fill="#ad81b1" stroke="#ad81b1" stroke-width="1.51"/><path d="M696,-218L689,-60L852,-71Z" fill="#ac81b6" stroke="#ac81b6" stroke-width="1.51"/><path d="M844,87L851,533L852,-71Z" fill="#7d5191" stroke="#7d5191" stroke-width="1.51"/><path d="M548,-213L542,-72L689,-60Z" fill="#ae93c6" stroke="#ae93c6" stroke-width="1.51"/><path d="M542,-72L540,84L689,-60Z" fill="#a08ac1" stroke="#a08ac1" stroke-width="1.51"/><path d="M540,84L549,241L691,238Z" fill="#8d6cb1" stroke="#8d6cb1" stroke-width="1.51"/><path d="M540,84L691,238L693,78Z" fill="#8f6fb1" stroke="#8f6fb1" stroke-width="1.51"/><path d="M689,-60L540,84L693,78Z" fill="#987fb9" stroke="#987fb9" stroke-width="1.51"/><path d="M691,238L549,241L695,378Z" fill="#8a51a3" stroke="#8a51a3" stroke-width="1.51"/><path d="M549,241L548,388L695,378Z" fill="#8a4ea3" stroke="#8a4ea3" stroke-width="1.51"/><path d="M695,378L548,388L696,528Z" fill="#873593" stroke="#873593" stroke-width="1.51"/><path d="M548,388L547,537L696,528Z" fill="#863390" stroke="#863390" stroke-width="1.51"/><path d="M548,-213L689,-60L696,-218Z" fill="#b492c5" stroke="#b492c5" stroke-width="1.51"/><path d="M393,-62L400,84L540,84Z" fill="#9898c8" stroke="#9898c8" stroke-width="1.51"/><path d="M400,84L400,235L540,84Z" fill="#8f89bf" stroke="#8f89bf" stroke-width="1.51"/><path d="M393,-62L540,84L542,-72Z" fill="#a097c7" stroke="#a097c7" stroke-width="1.51"/><path d="M397,-221L393,-62L542,-72Z" fill="#aea8d1" stroke="#aea8d1" stroke-width="1.51"/><path d="M397,-221L542,-72L548,-213Z" fill="#b5a6d0" stroke="#b5a6d0" stroke-width="1.51"/><path d="M388,534L547,537L548,388Z" fill="#884396" stroke="#884396" stroke-width="1.51"/><path d="M391,381L388,534L548,388Z" fill="#8a53a1" stroke="#8a53a1" stroke-width="1.51"/><path d="M540,84L400,235L549,241Z" fill="#8d78b7" stroke="#8d78b7" stroke-width="1.51"/><path d="M391,381L548,388L549,241Z" fill="#8b5caa" stroke="#8b5caa" stroke-width="1.51"/><path d="M400,235L391,381L549,241Z" fill="#8c6cb2" stroke="#8c6cb2" stroke-width="1.51"/><path d="M252,392L241,528L388,534Z" fill="#8d62a4" stroke="#8d62a4" stroke-width="1.51"/><path d="M252,392L388,534L391,381Z" fill="#8b62a8" stroke="#8b62a8" stroke-width="1.51"/><path d="M241,241L252,392L391,381Z" fill="#8e78b7" stroke="#8e78b7" stroke-width="1.51"/><path d="M252,-215L245,-67L393,-62Z" fill="#afbcda" stroke="#afbcda" stroke-width="1.51"/><path d="M245,-67L243,91L393,-62Z" fill="#a0b2d5" stroke="#a0b2d5" stroke-width="1.51"/><path d="M252,-215L393,-62L397,-221Z" fill="#b5bada" stroke="#b5bada" stroke-width="1.51"/><path d="M393,-62L243,91L400,84Z" fill="#97a6ce" stroke="#97a6ce" stroke-width="1.51"/><path d="M241,241L391,381L400,235Z" fill="#8d7bb9" stroke="#8d7bb9" stroke-width="1.51"/><path d="M400,84L243,91L400,235Z" fill="#8e96c6" stroke="#8e96c6" stroke-width="1.51"/><path d="M243,91L241,241L400,235Z" fill="#8e93c5" stroke="#8e93c5" stroke-width="1.51"/><path d="M93,239L88,386L241,241Z" fill="#9a92c5" stroke="#9a92c5" stroke-width="1.51"/><path d="M88,386L94,541L241,528Z" fill="#9973ad" stroke="#9973ad" stroke-width="1.51"/><path d="M93,239L241,241L243,91Z" fill="#94a0cb" stroke="#94a0cb" stroke-width="1.51"/><path d="M89,78L93,239L243,91Z" fill="#9aafd3" stroke="#9aafd3" stroke-width="1.51"/><path d="M89,78L243,91L245,-67Z" fill="#9fbad9" stroke="#9fbad9" stroke-width="1.51"/><path d="M100,-68L89,78L245,-67Z" fill="#abc5df" stroke="#abc5df" stroke-width="1.51"/><path d="M100,-68L245,-67L252,-215Z" fill="#b5c9e1" stroke="#b5c9e1" stroke-width="1.51"/><path d="M99,-221L100,-68L252,-215Z" fill="#c0d4e8" stroke="#c0d4e8" stroke-width="1.51"/><path d="M88,386L241,528L252,392Z" fill="#9576b2" stroke="#9576b2" stroke-width="1.51"/><path d="M241,241L88,386L252,392Z" fill="#9585be" stroke="#9585be" stroke-width="1.51"/><path d="M-50,239L-54,382L88,386Z" fill="#a995c7" stroke="#a995c7" stroke-width="1.51"/><path d="M-54,382L-53,538L88,386Z" fill="#a985bb" stroke="#a985bb" stroke-width="1.51"/><path d="M-60,-69L-48,83L89,78Z" fill="#b4cbe2" stroke="#b4cbe2" stroke-width="1.51"/><path d="M-50,239L88,386L93,239Z" fill="#a49ac9" stroke="#a49ac9" stroke-width="1.51"/><path d="M89,78L-48,83L93,239Z" fill="#a5b7d8" stroke="#a5b7d8" stroke-width="1.51"/><path d="M-48,83L-50,239L93,239Z" fill="#a9b1d4" stroke="#a9b1d4" stroke-width="1.51"/><path d="M88,386L-53,538L94,541Z" fill="#a379b1" stroke="#a379b1" stroke-width="1.51"/><path d="M-60,-69L89,78L100,-68Z" fill="#b6cce2" stroke="#b6cce2" stroke-width="1.51"/><path d="M99,-221L-60,-210L100,-68Z" fill="#cbdceb" stroke="#cbdceb" stroke-width="1.51"/><path d="M-60,-210L-60,-69L100,-68Z" fill="#cadaea" stroke="#cadaea" stroke-width="1.51"/><path d="M-212,-216L-204,-65L-60,-210Z" fill="#e0ecf4" stroke="#e0ecf4" stroke-width="1.51"/><path d="M-60,-210L-204,-65L-60,-69Z" fill="#d4e3ef" stroke="#d4e3ef" stroke-width="1.51"/><path d="M-204,-65L-207,85L-60,-69Z" fill="#cbdceb" stroke="#cbdceb" stroke-width="1.51"/><path d="M-207,239L-204,384L-54,382Z" fill="#b8a0cd" stroke="#b8a0cd" stroke-width="1.51"/><path d="M-204,384L-201,531L-54,382Z" fill="#b890c1" stroke="#b890c1" stroke-width="1.51"/><path d="M-54,382L-201,531L-53,538Z" fill="#b285b8" stroke="#b285b8" stroke-width="1.51"/><path d="M-207,239L-54,382L-50,239Z" fill="#b4a6d0" stroke="#b4a6d0" stroke-width="1.51"/><path d="M-207,85L-207,239L-50,239Z" fill="#b9bcdb" stroke="#b9bcdb" stroke-width="1.51"/><path d="M-207,85L-50,239L-48,83Z" fill="#b5c2dd" stroke="#b5c2dd" stroke-width="1.51"/><path d="M-60,-69L-207,85L-48,83Z" fill="#bfd3e7" stroke="#bfd3e7" stroke-width="1.51"/><path d="M-212,-216L-207,85L-204,-65Z" fill="#d6e3ef" stroke="#d6e3ef" stroke-width="1.51"/></svg>