<svg xmlns="http://www.w3.org/2000/svg" width="640" height="320"><path d="M845,-215L695,-215L845,-65Z" fill="#8599b9" stroke="#8599b9" stroke-width="1.51"/><path d="M695,-215L695,-65L845,-65Z" fill="#829abe" stroke="#829abe" stroke-width="1.51"/><path d="M845,-65L695,-65L845,85Z" fill="#6f8cb2" stroke="#6f8cb2" stroke-width="1.51"/><path d="M695,-65L695,85L845,85Z" fill="#688db7" stroke="#688db7" stroke-width="1.51"/><path d="M695,385L845,385L845,235Z" fill="#14699d" stroke="#14699d" stroke-width="1.51"/><path d="M695,235L695,385L845,235Z" fill="#1f75a8" stroke="#1f75a8" stroke-width="1.51"/><path d="M845,85L695,85L845,235Z" fill="#4d7faa" stroke="#4d7faa" stroke-width="1.51"/><path d="M695,85L695,235L845,235Z" fill="#4180af" stroke="#4180af" stroke-width="1.51"/><path d="M845,385L695,385L845,535Z" fill="#045d92" stroke="#045d92" stroke-width="1.51"/><path d="M695,385L695,535L845,535Z" fill="#045d92" stroke="#045d92" stroke-width="1.51"/><path d="M695,-215L545,-215L695,-65Z" fill="#8ea6cd" stroke="#8ea6cd" stroke-width="1.51"/><path d="M545,-215L545,-65L695,-65Z" fill="#8aa6cf" stroke="#8aa6cf" stroke-width="1.51"/><path d="M695,-65L545,-65L695,85Z" fill="#7799c5" stroke="#7799c5" stroke-width="1.51"/><path d="M545,-65L545,85L695,85Z" fill="#6f99c8" stroke="#6f99c8" stroke-width="1.51"/><path d="M695,85L545,85L695,235Z" fill="#538cbe" stroke="#538cbe" stroke-width="1.51"/><path d="M545,85L545,235L695,235Z" fill="#478cc0" stroke="#478cc0" stroke-width="1.51"/><path d="M695,235L545,235L695,385Z" fill="#217cb4" stroke="#217cb4" stroke-width="1.51"/><path d="M545,235L545,385L695,385Z" fill="#1c79b5" stroke="#1c79b5" stroke-width="1.51"/><path d="M695,385L545,385L695,535Z" fill="#0569a5" stroke="#0569a5" stroke-width="1.51"/><path d="M545,385L545,535L695,535Z" fill="#0c68a2" stroke="#0c68a2" stroke-width="1.51"/><path d="M545,-215L395,-215L545,-65Z" fill="#98b7d7" stroke="#98b7d7" stroke-width="1.51"/><path d="M395,-215L395,-65L545,-65Z" fill="#97b7d7" stroke="#97b7d7" stroke-width="1.51"/><path d="M545,-65L395,-65L545,85Z" fill="#81a9cf" stroke="#81a9cf" stroke-width="1.51"/><path d="M395,-65L395,85L545,85Z" fill="#7ca9cf" stroke="#7ca9cf" stroke-width="1.51"/><path d="M545,85L395,85L545,235Z" fill="#5e9cc7" stroke="#5e9cc7" stroke-width="1.51"/><path d="M395,85L395,235L545,235Z" fill="#579bc7" stroke="#579bc7" stroke-width="1.51"/><path d="M545,235L395,235L545,385Z" fill="#328bbd" stroke="#328bbd" stroke-width="1.51"/><path d="M395,235L395,385L545,385Z" fill="#3489bd" stroke="#3489bd" stroke-width="1.51"/><path d="M545,385L395,385L545,535Z" fill="#2078ae" stroke="#2078ae" stroke-width="1.51"/><path d="M395,385L395,535L545,535Z" fill="#2a77a9" stroke="#2a77a9" stroke-width="1.51"/><path d="M395,-65L245,-65L395,85Z" fill="#97b6d7" stroke="#97b6d7" stroke-width="1.51"/><path d="M245,-65L245,85L395,85Z" fill="#95b5d7" stroke="#95b5d7" stroke-width="1.51"/><path d="M395,85L245,85L395,235Z" fill="#76a9cf" stroke="#76a9cf" stroke-width="1.51"/><path d="M245,85L245,235L395,235Z" fill="#73a7cf" stroke="#73a7cf" stroke-width="1.51"/><path d="M395,235L245,235L395,385Z" fill="#5298c5" stroke="#5298c5" stroke-width="1.51"/><path d="M245,235L245,385L395,385Z" fill="#5795c4" stroke="#5795c4" stroke-width="1.51"/><path d="M395,385L245,385L395,535Z" fill="#4585b6" stroke="#4585b6" stroke-width="1.51"/><path d="M245,385L245,535L395,535Z" fill="#4d83b1" stroke="#4d83b1" stroke-width="1.51"/><path d="M245,-65L395,-65L395,-215Z" fill="#a6c0dc" stroke="#a6c0dc" stroke-width="1.51"/><path d="M245,-215L245,-65L395,-215Z" fill="#b5c8e1" stroke="#b5c8e1" stroke-width="1.51"/><path d="M95,535L245,535L245,385Z" fill="#6089b5" stroke="#6089b5" stroke-width="1.51"/><path d="M95,385L95,535L245,385Z" fill="#6b92be" stroke="#6b92be" stroke-width="1.51"/><path d="M245,-215L95,-215L245,-65Z" fill="#c4cfe5" stroke="#c4cfe5" stroke-width="1.51"/><path d="M95,-215L95,-65L245,-65Z" fill="#c5cde4" stroke="#c5cde4" stroke-width="1.51"/><path d="M245,-65L95,-65L245,85Z" fill="#aec1dd" stroke="#aec1dd" stroke-width="1.51"/><path d="M95,-65L95,85L245,85Z" fill="#acbfdc" stroke="#acbfdc" stroke-width="1.51"/><path d="M95,385L245,385L245,235Z" fill="#6b9bc8" stroke="#6b9bc8" stroke-width="1.51"/><path d="M95,235L95,385L245,235Z" fill="#78a6ce" stroke="#78a6ce" stroke-width="1.51"/><path d="M245,85L95,85L245,235Z" fill="#8fb3d6" stroke="#8fb3d6" stroke-width="1.51"/><path d="M95,85L95,235L245,235Z" fill="#8cb1d5" stroke="#8cb1d5" stroke-width="1.51"/><path d="M-55,-65L95,-65L95,-215Z" fill="#d3d4e8" stroke="#d3d4e8" stroke-width="1.51"/><path d="M-55,-215L-55,-65L95,-215Z" fill="#dfddec" stroke="#dfddec" stroke-width="1.51"/><path d="M-55,535L95,535L95,385Z" fill="#7893ba" stroke="#7893ba" stroke-width="1.51"/><path d="M-55,385L-55,535L95,385Z" fill="#819bc4" stroke="#819bc4" stroke-width="1.51"/><path d="M95,235L-55,235L95,385Z" fill="#88acd1" stroke="#88acd1" stroke-width="1.51"/><path d="M-55,235L-55,385L95,385Z" fill="#89a8d0" stroke="#89a8d0" stroke-width="1.51"/><path d="M95,-65L-55,-65L95,85Z" fill="#c4cbe3" stroke="#c4cbe3" stroke-width="1.51"/><path d="M-55,-65L-55,85L95,85Z" fill="#c0cae2" stroke="#c0cae2" stroke-width="1.51"/><path d="M-55,235L95,235L95,85Z" fill="#9bb8d8" stroke="#9bb8d8" stroke-width="1.51"/><path d="M-55,85L-55,235L95,85Z" fill="#acc1dd" stroke="#acc1dd" stroke-width="1.51"/><path d="M-55,-215L-205,-215L-55,-65Z" fill="#e8e4f1" stroke="#e8e4f1" stroke-width="1.51"/><path d="M-205,-215L-205,-65L-55,-65Z" fill="#e5e2ef" stroke="#e5e2ef" stroke-width="1.51"/><path d="M-55,-65L-205,-65L-55,85Z" fill="#d3d5e8" stroke="#d3d5e8" stroke-width="1.51"/><path d="M-205,-65L-205,85L-55,85Z" fill="#cdd4e8" stroke="#cdd4e8" stroke-width="1.51"/><path d="M-55,85L-205,85L-55,235Z" fill="#b5c8e1" stroke="#b5c8e1" stroke-width="1.51"/><path d="M-205,85L-205,235L-55,235Z" fill="#afc6e0" stroke="#afc6e0" stroke-width="1.51"/><path d="M-55,235L-205,235L-55,385Z" fill="#98b7d7" stroke="#98b7d7" stroke-width="1.51"/><path d="M-205,235L-205,385L-55,385Z" fill="#97b2d5" stroke="#97b2d5" stroke-width="1.51"/><path d="M-55,385L-205,385L-55,535Z" fill="#8ba2c8" stroke="#8ba2c8" stroke-width="1.51"/><path d="M-205,385L-205,535L-55,535Z" fill="#8ba0c1" stroke="#8ba0c1" stroke-width="1.51"/></svg>