<svg xmlns="http://www.w3.org/2000/svg" width="640" height="320"><path d="M-180,-233L-51,-227L408,-223Z" fill="#d7efd2" stroke="#d7efd2" stroke-width="1.51"/><path d="M-51,-227L87,-209L408,-223Z" fill="#cbebcd" stroke="#cbebcd" stroke-width="1.51"/><path d="M375,530L236,562L524,531Z" fill="#478bb3" stroke="#478bb3" stroke-width="1.51"/><path d="M-180,-233L408,-223L560,-224Z" fill="#bde5d1" stroke="#bde5d1" stroke-width="1.51"/><path d="M677,262L688,411L821,238Z" fill="#328dbf" stroke="#328dbf" stroke-width="1.51"/><path d="M560,-224L707,-199L835,-217Z" fill="#92b5cc" stroke="#92b5cc" stroke-width="1.51"/><path d="M821,238L688,411L851,406Z" fill="#267db5" stroke="#267db5" stroke-width="1.51"/><path d="M688,411L666,519L851,406Z" fill="#1974b2" stroke="#1974b2" stroke-width="1.51"/><path d="M666,519L524,531L853,563Z" fill="#176ba9" stroke="#176ba9" stroke-width="1.51"/><path d="M524,531L236,562L853,563Z" fill="#2b79b0" stroke="#2b79b0" stroke-width="1.51"/><path d="M851,406L666,519L853,563Z" fill="#0965a9" stroke="#0965a9" stroke-width="1.51"/><path d="M835,-217L707,-199L854,-63Z" fill="#88a5be" stroke="#88a5be" stroke-width="1.51"/><path d="M671,-68L705,88L854,-63Z" fill="#7ba7b8" stroke="#7ba7b8" stroke-width="1.51"/><path d="M851,406L853,563L867,85Z" fill="#2573ab" stroke="#2573ab" stroke-width="1.51"/><path d="M854,-63L705,88L867,85Z" fill="#6f9bad" stroke="#6f9bad" stroke-width="1.51"/><path d="M705,88L821,238L867,85Z" fill="#5895b3" stroke="#5895b3" stroke-width="1.51"/><path d="M821,238L851,406L867,85Z" fill="#3d84b2" stroke="#3d84b2" stroke-width="1.51"/><path d="M707,-199L671,-68L854,-63Z" fill="#87abc0" stroke="#87abc0" stroke-width="1.51"/><path d="M87,-209L262,-196L408,-223Z" fill="#bde5cf" stroke="#bde5cf" stroke-width="1.51"/><path d="M705,88L677,262L821,238Z" fill="#4d99bd" stroke="#4d99bd" stroke-width="1.51"/><path d="M560,-224L572,-66L671,-68Z" fill="#90bfc9" stroke="#90bfc9" stroke-width="1.51"/><path d="M677,262L522,393L688,411Z" fill="#3090c0" stroke="#3090c0" stroke-width="1.51"/><path d="M671,-68L572,-66L705,88Z" fill="#80b3bd" stroke="#80b3bd" stroke-width="1.51"/><path d="M572,-66L538,112L705,88Z" fill="#78b5bb" stroke="#78b5bb" stroke-width="1.51"/><path d="M538,112L677,262L705,88Z" fill="#5ba9c0" stroke="#5ba9c0" stroke-width="1.51"/><path d="M560,-224L671,-68L707,-199Z" fill="#91baca" stroke="#91baca" stroke-width="1.51"/><path d="M523,261L522,393L677,262Z" fill="#3e9fc8" stroke="#3e9fc8" stroke-width="1.51"/><path d="M538,112L523,261L677,262Z" fill="#53abc8" stroke="#53abc8" stroke-width="1.51"/><path d="M522,393L666,519L688,411Z" fill="#2482b9" stroke="#2482b9" stroke-width="1.51"/><path d="M522,393L524,531L666,519Z" fill="#2983ba" stroke="#2983ba" stroke-width="1.51"/><path d="M368,-56L378,100L538,112Z" fill="#86cbc3" stroke="#86cbc3" stroke-width="1.51"/><path d="M368,-56L538,112L572,-66Z" fill="#8ac7c7" stroke="#8ac7c7" stroke-width="1.51"/><path d="M560,-224L408,-223L572,-66Z" fill="#9ccdd4" stroke="#9ccdd4" stroke-width="1.51"/><path d="M408,-223L368,-56L572,-66Z" fill="#9dd2d0" stroke="#9dd2d0" stroke-width="1.51"/><path d="M522,393L424,414L524,531Z" fill="#3793c2" stroke="#3793c2" stroke-width="1.51"/><path d="M368,216L523,261L538,112Z" fill="#60bace" stroke="#60bace" stroke-width="1.51"/><path d="M424,414L522,393L523,261Z" fill="#40a2c9" stroke="#40a2c9" stroke-width="1.51"/><path d="M378,100L368,216L538,112Z" fill="#72c4c9" stroke="#72c4c9" stroke-width="1.51"/><path d="M368,216L424,414L523,261Z" fill="#51b1cf" stroke="#51b1cf" stroke-width="1.51"/><path d="M424,414L375,530L524,531Z" fill="#3c90bf" stroke="#3c90bf" stroke-width="1.51"/><path d="M262,-196L368,-56L408,-223Z" fill="#acddcf" stroke="#acddcf" stroke-width="1.51"/><path d="M258,368L375,530L424,414Z" fill="#52a0bf" stroke="#52a0bf" stroke-width="1.51"/><path d="M368,216L258,368L424,414Z" fill="#5cb2c8" stroke="#5cb2c8" stroke-width="1.51"/><path d="M262,-196L257,-71L368,-56Z" fill="#addfc8" stroke="#addfc8" stroke-width="1.51"/><path d="M368,-56L237,101L378,100Z" fill="#92d4bd" stroke="#92d4bd" stroke-width="1.51"/><path d="M238,232L258,368L368,216Z" fill="#6ec1ca" stroke="#6ec1ca" stroke-width="1.51"/><path d="M237,101L238,232L368,216Z" fill="#7ecbc4" stroke="#7ecbc4" stroke-width="1.51"/><path d="M257,-71L237,101L368,-56Z" fill="#a1dabf" stroke="#a1dabf" stroke-width="1.51"/><path d="M258,368L236,562L375,530Z" fill="#5a9bb8" stroke="#5a9bb8" stroke-width="1.51"/><path d="M237,101L368,216L378,100Z" fill="#7fcdc3" stroke="#7fcdc3" stroke-width="1.51"/><path d="M82,509L-54,552L236,562Z" fill="#779bae" stroke="#779bae" stroke-width="1.51"/><path d="M92,-89L82,94L237,101Z" fill="#aee0b7" stroke="#aee0b7" stroke-width="1.51"/><path d="M237,101L109,247L238,232Z" fill="#8acfc1" stroke="#8acfc1" stroke-width="1.51"/><path d="M92,-89L237,101L257,-71Z" fill="#b0e0bb" stroke="#b0e0bb" stroke-width="1.51"/><path d="M82,509L236,562L258,368Z" fill="#6ca2b4" stroke="#6ca2b4" stroke-width="1.51"/><path d="M94,374L82,509L258,368Z" fill="#78afba" stroke="#78afba" stroke-width="1.51"/><path d="M238,232L109,247L258,368Z" fill="#7cc4c5" stroke="#7cc4c5" stroke-width="1.51"/><path d="M109,247L94,374L258,368Z" fill="#7fbec0" stroke="#7fbec0" stroke-width="1.51"/><path d="M92,-89L257,-71L262,-196Z" fill="#bbe4c3" stroke="#bbe4c3" stroke-width="1.51"/><path d="M87,-209L92,-89L262,-196Z" fill="#c6e9c7" stroke="#c6e9c7" stroke-width="1.51"/><path d="M82,94L109,247L237,101Z" fill="#99d7bd" stroke="#99d7bd" stroke-width="1.51"/><path d="M-77,-47L-70,91L82,94Z" fill="#bde5c0" stroke="#bde5c0" stroke-width="1.51"/><path d="M-77,-47L82,94L92,-89Z" fill="#c3e8c1" stroke="#c3e8c1" stroke-width="1.51"/><path d="M87,-209L-51,-227L92,-89Z" fill="#d4eecf" stroke="#d4eecf" stroke-width="1.51"/><path d="M-31,393L82,509L94,374Z" fill="#83b2be" stroke="#83b2be" stroke-width="1.51"/><path d="M-57,237L-31,393L94,374Z" fill="#90c4c8" stroke="#90c4c8" stroke-width="1.51"/><path d="M-57,237L94,374L109,247Z" fill="#91caca" stroke="#91caca" stroke-width="1.51"/><path d="M82,94L-57,237L109,247Z" fill="#9ed7c5" stroke="#9ed7c5" stroke-width="1.51"/><path d="M-70,91L-57,237L82,94Z" fill="#acdec6" stroke="#acdec6" stroke-width="1.51"/><path d="M-51,-227L-77,-47L92,-89Z" fill="#d3eecd" stroke="#d3eecd" stroke-width="1.51"/><path d="M-31,393L-54,552L82,509Z" fill="#84a9bc" stroke="#84a9bc" stroke-width="1.51"/><path d="M-70,91L-181,250L-57,237Z" fill="#a9dbd0" stroke="#a9dbd0" stroke-width="1.51"/><path d="M-181,250L-188,374L-57,237Z" fill="#a0d0d7" stroke="#a0d0d7" stroke-width="1.51"/><path d="M-188,374L-235,512L-54,552Z" fill="#8eafc8" stroke="#8eafc8" stroke-width="1.51"/><path d="M-212,-93L-77,-47L-51,-227Z" fill="#daf1d4" stroke="#daf1d4" stroke-width="1.51"/><path d="M-180,-233L-212,-93L-51,-227Z" fill="#e2f4dc" stroke="#e2f4dc" stroke-width="1.51"/><path d="M-188,374L-54,552L-31,393Z" fill="#8db3c6" stroke="#8db3c6" stroke-width="1.51"/><path d="M-57,237L-188,374L-31,393Z" fill="#97c6cf" stroke="#97c6cf" stroke-width="1.51"/><path d="M-77,-47L-185,64L-70,91Z" fill="#c5e8c7" stroke="#c5e8c7" stroke-width="1.51"/><path d="M-185,64L-181,250L-70,91Z" fill="#b6e2cf" stroke="#b6e2cf" stroke-width="1.51"/><path d="M-212,-93L-185,64L-77,-47Z" fill="#d2eecf" stroke="#d2eecf" stroke-width="1.51"/><path d="M-212,-93L-235,512L-185,64Z" fill="#b6e2d5" stroke="#b6e2d5" stroke-width="1.51"/><path d="M-185,64L-235,512L-181,250Z" fill="#a5d4dc" stroke="#a5d4dc" stroke-width="1.51"/><path d="M-235,512L-188,374L-181,250Z" fill="#99c1d2" stroke="#99c1d2" stroke-width="1.51"/></svg>