<svg xmlns="http://www.w3.org/2000/svg" width="1440" height="480"><path d="M1620,-210L1470,-210L1620,-60Z" fill="#8091bd" stroke="#8091bd" stroke-width="1.51"/><path d="M1470,-210L1470,-60L1620,-60Z" fill="#7e92c1" stroke="#7e92c1" stroke-width="1.51"/><path d="M1620,-60L1470,-60L1620,90Z" fill="#7189b8" stroke="#7189b8" stroke-width="1.51"/><path d="M1470,-60L1470,90L1620,90Z" fill="#6b89bb" stroke="#6b89bb" stroke-width="1.51"/><path d="M1470,390L1620,390L1620,240Z" fill="#316ba6" stroke="#316ba6" stroke-width="1.51"/><path d="M1470,240L1470,390L1620,240Z" fill="#3b73af" stroke="#3b73af" stroke-width="1.51"/><path d="M1620,90L1470,90L1620,240Z" fill="#587fb0" stroke="#587fb0" stroke-width="1.51"/><path d="M1470,90L1470,240L1620,240Z" fill="#4f7eb4" stroke="#4f7eb4" stroke-width="1.51"/><path d="M1620,390L1470,390L1620,540Z" fill="#2160a0" stroke="#2160a0" stroke-width="1.51"/><path d="M1470,390L1470,540L1620,540Z" fill="#195da2" stroke="#195da2" stroke-width="1.51"/><path d="M1620,540L1470,540L1620,690Z" fill="#0e4e94" stroke="#0e4e94" stroke-width="1.51"/><path d="M1470,540L1470,690L1620,690Z" fill="#094b94" stroke="#094b94" stroke-width="1.51"/><path d="M1470,-210L1320,-210L1470,-60Z" fill="#869dcb" stroke="#869dcb" stroke-width="1.51"/><path d="M1320,-210L1320,-60L1470,-60Z" fill="#839dcc" stroke="#839dcc" stroke-width="1.51"/><path d="M1320,390L1470,390L1470,240Z" fill="#3476b4" stroke="#3476b4" stroke-width="1.51"/><path d="M1320,240L1320,390L1470,240Z" fill="#3e7eba" stroke="#3e7eba" stroke-width="1.51"/><path d="M1470,-60L1320,-60L1470,90Z" fill="#7794c6" stroke="#7794c6" stroke-width="1.51"/><path d="M1320,-60L1320,90L1470,90Z" fill="#7094c6" stroke="#7094c6" stroke-width="1.51"/><path d="M1320,240L1470,240L1470,90Z" fill="#5285bc" stroke="#5285bc" stroke-width="1.51"/><path d="M1320,90L1320,240L1470,90Z" fill="#5e8dc1" stroke="#5e8dc1" stroke-width="1.51"/><path d="M1470,390L1320,390L1470,540Z" fill="#246bae" stroke="#246bae" stroke-width="1.51"/><path d="M1320,390L1320,540L1470,540Z" fill="#1d67ad" stroke="#1d67ad" stroke-width="1.51"/><path d="M1320,690L1470,690L1470,540Z" fill="#0b529c" stroke="#0b529c" stroke-width="1.51"/><path d="M1320,540L1320,690L1470,540Z" fill="#135ba4" stroke="#135ba4" stroke-width="1.51"/><path d="M1320,-210L1170,-210L1320,-60Z" fill="#8ba8d3" stroke="#8ba8d3" stroke-width="1.51"/><path d="M1170,-210L1170,-60L1320,-60Z" fill="#88a8d4" stroke="#88a8d4" stroke-width="1.51"/><path d="M1320,-60L1170,-60L1320,90Z" fill="#7b9fcf" stroke="#7b9fcf" stroke-width="1.51"/><path d="M1170,-60L1170,90L1320,90Z" fill="#759fce" stroke="#759fce" stroke-width="1.51"/><path d="M1320,90L1170,90L1320,240Z" fill="#6195c7" stroke="#6195c7" stroke-width="1.51"/><path d="M1170,90L1170,240L1320,240Z" fill="#5893c7" stroke="#5893c7" stroke-width="1.51"/><path d="M1170,540L1320,540L1320,390Z" fill="#216eb3" stroke="#216eb3" stroke-width="1.51"/><path d="M1170,390L1170,540L1320,390Z" fill="#2a78b9" stroke="#2a78b9" stroke-width="1.51"/><path d="M1320,240L1170,240L1320,390Z" fill="#4185bf" stroke="#4185bf" stroke-width="1.51"/><path d="M1170,240L1170,390L1320,390Z" fill="#3a84bf" stroke="#3a84bf" stroke-width="1.51"/><path d="M1320,540L1170,540L1320,690Z" fill="#1862a9" stroke="#1862a9" stroke-width="1.51"/><path d="M1170,540L1170,690L1320,690Z" fill="#165fa7" stroke="#165fa7" stroke-width="1.51"/><path d="M1170,-210L1020,-210L1170,-60Z" fill="#91b3d9" stroke="#91b3d9" stroke-width="1.51"/><path d="M1020,-210L1020,-60L1170,-60Z" fill="#8eb3da" stroke="#8eb3da" stroke-width="1.51"/><path d="M1170,-60L1020,-60L1170,90Z" fill="#81aad5" stroke="#81aad5" stroke-width="1.51"/><path d="M1020,-60L1020,90L1170,90Z" fill="#7baad4" stroke="#7baad4" stroke-width="1.51"/><path d="M1170,90L1020,90L1170,240Z" fill="#679fcd" stroke="#679fcd" stroke-width="1.51"/><path d="M1020,90L1020,240L1170,240Z" fill="#5e9dcd" stroke="#5e9dcd" stroke-width="1.51"/><path d="M1170,240L1020,240L1170,390Z" fill="#4890c6" stroke="#4890c6" stroke-width="1.51"/><path d="M1020,240L1020,390L1170,390Z" fill="#428ec5" stroke="#428ec5" stroke-width="1.51"/><path d="M1170,390L1020,390L1170,540Z" fill="#317fbc" stroke="#317fbc" stroke-width="1.51"/><path d="M1020,390L1020,540L1170,540Z" fill="#2e7bbb" stroke="#2e7bbb" stroke-width="1.51"/><path d="M1170,540L1020,540L1170,690Z" fill="#236caf" stroke="#236caf" stroke-width="1.51"/><path d="M1020,540L1020,690L1170,690Z" fill="#2468ac" stroke="#2468ac" stroke-width="1.51"/><path d="M1020,-210L870,-210L1020,-60Z" fill="#97bddf" stroke="#97bddf" stroke-width="1.51"/><path d="M870,-210L870,-60L1020,-60Z" fill="#96bedf" stroke="#96bedf" stroke-width="1.51"/><path d="M1020,-60L870,-60L1020,90Z" fill="#88b4da" stroke="#88b4da" stroke-width="1.51"/><path d="M870,-60L870,90L1020,90Z" fill="#83b4d9" stroke="#83b4d9" stroke-width="1.51"/><path d="M1020,90L870,90L1020,240Z" fill="#6eaad2" stroke="#6eaad2" stroke-width="1.51"/><path d="M870,90L870,240L1020,240Z" fill="#67a8d2" stroke="#67a8d2" stroke-width="1.51"/><path d="M870,540L1020,540L1020,390Z" fill="#3482bf" stroke="#3482bf" stroke-width="1.51"/><path d="M870,390L870,540L1020,390Z" fill="#3f8cc3" stroke="#3f8cc3" stroke-width="1.51"/><path d="M1020,240L870,240L1020,390Z" fill="#4f9acb" stroke="#4f9acb" stroke-width="1.51"/><path d="M870,240L870,390L1020,390Z" fill="#4c98ca" stroke="#4c98ca" stroke-width="1.51"/><path d="M1020,540L870,540L1020,690Z" fill="#2e75b5" stroke="#2e75b5" stroke-width="1.51"/><path d="M870,540L870,690L1020,690Z" fill="#3172b1" stroke="#3172b1" stroke-width="1.51"/><path d="M870,-60L720,-60L870,90Z" fill="#92bddf" stroke="#92bddf" stroke-width="1.51"/><path d="M720,-60L720,90L870,90Z" fill="#8dbdde" stroke="#8dbdde" stroke-width="1.51"/><path d="M870,90L720,90L870,240Z" fill="#78b2d7" stroke="#78b2d7" stroke-width="1.51"/><path d="M720,90L720,240L870,240Z" fill="#72b0d7" stroke="#72b0d7" stroke-width="1.51"/><path d="M870,240L720,240L870,390Z" fill="#5ca2cf" stroke="#5ca2cf" stroke-width="1.51"/><path d="M720,240L720,390L870,390Z" fill="#58a0ce" stroke="#58a0ce" stroke-width="1.51"/><path d="M720,690L870,690L870,540Z" fill="#3b77b4" stroke="#3b77b4" stroke-width="1.51"/><path d="M720,540L720,690L870,540Z" fill="#4280bb" stroke="#4280bb" stroke-width="1.51"/><path d="M870,390L720,390L870,540Z" fill="#4991c6" stroke="#4991c6" stroke-width="1.51"/><path d="M720,390L720,540L870,540Z" fill="#488ec5" stroke="#488ec5" stroke-width="1.51"/><path d="M720,-60L870,-60L870,-210Z" fill="#9cc3e2" stroke="#9cc3e2" stroke-width="1.51"/><path d="M720,-210L720,-60L870,-210Z" fill="#a5c9e5" stroke="#a5c9e5" stroke-width="1.51"/><path d="M570,690L720,690L720,540Z" fill="#4b80b9" stroke="#4b80b9" stroke-width="1.51"/><path d="M570,540L570,690L720,540Z" fill="#5488bf" stroke="#5488bf" stroke-width="1.51"/><path d="M570,540L720,540L720,390Z" fill="#5393c8" stroke="#5393c8" stroke-width="1.51"/><path d="M570,390L570,540L720,390Z" fill="#5e9ccc" stroke="#5e9ccc" stroke-width="1.51"/><path d="M570,390L720,390L720,240Z" fill="#63a6d1" stroke="#63a6d1" stroke-width="1.51"/><path d="M570,240L570,390L720,240Z" fill="#6faed6" stroke="#6faed6" stroke-width="1.51"/><path d="M570,240L720,240L720,90Z" fill="#7bb6d9" stroke="#7bb6d9" stroke-width="1.51"/><path d="M570,90L570,240L720,90Z" fill="#8abedd" stroke="#8abedd" stroke-width="1.51"/><path d="M570,90L720,90L720,-60Z" fill="#96c3e0" stroke="#96c3e0" stroke-width="1.51"/><path d="M570,-60L570,90L720,-60Z" fill="#a2c9e4" stroke="#a2c9e4" stroke-width="1.51"/><path d="M570,-60L720,-60L720,-210Z" fill="#a8cde6" stroke="#a8cde6" stroke-width="1.51"/><path d="M570,-210L570,-60L720,-210Z" fill="#b2d2e9" stroke="#b2d2e9" stroke-width="1.51"/><path d="M420,540L570,540L570,390Z" fill="#659bcb" stroke="#659bcb" stroke-width="1.51"/><path d="M420,390L420,540L570,390Z" fill="#6fa5cf" stroke="#6fa5cf" stroke-width="1.51"/><path d="M570,-210L420,-210L570,-60Z" fill="#bbd8eb" stroke="#bbd8eb" stroke-width="1.51"/><path d="M420,-210L420,-60L570,-60Z" fill="#bbd8ea" stroke="#bbd8ea" stroke-width="1.51"/><path d="M570,-60L420,-60L570,90Z" fill="#accfe6" stroke="#accfe6" stroke-width="1.51"/><path d="M420,-60L420,90L570,90Z" fill="#a9cee4" stroke="#a9cee4" stroke-width="1.51"/><path d="M420,390L570,390L570,240Z" fill="#74afd5" stroke="#74afd5" stroke-width="1.51"/><path d="M420,240L420,390L570,240Z" fill="#7fb6d9" stroke="#7fb6d9" stroke-width="1.51"/><path d="M570,90L420,90L570,240Z" fill="#94c4df" stroke="#94c4df" stroke-width="1.51"/><path d="M420,90L420,240L570,240Z" fill="#90c1de" stroke="#90c1de" stroke-width="1.51"/><path d="M570,540L420,540L570,690Z" fill="#608ec2" stroke="#608ec2" stroke-width="1.51"/><path d="M420,540L420,690L570,690Z" fill="#638abd" stroke="#638abd" stroke-width="1.51"/><path d="M420,-210L270,-210L420,-60Z" fill="#c8deef" stroke="#c8deef" stroke-width="1.51"/><path d="M270,-210L270,-60L420,-60Z" fill="#c7ddef" stroke="#c7ddef" stroke-width="1.51"/><path d="M420,-60L270,-60L420,90Z" fill="#b9d5ea" stroke="#b9d5ea" stroke-width="1.51"/><path d="M270,-60L270,90L420,90Z" fill="#b6d4e9" stroke="#b6d4e9" stroke-width="1.51"/><path d="M420,90L270,90L420,240Z" fill="#a2cae2" stroke="#a2cae2" stroke-width="1.51"/><path d="M270,90L270,240L420,240Z" fill="#9dc7e2" stroke="#9dc7e2" stroke-width="1.51"/><path d="M420,240L270,240L420,390Z" fill="#89badc" stroke="#89badc" stroke-width="1.51"/><path d="M270,240L270,390L420,390Z" fill="#87b6da" stroke="#87b6da" stroke-width="1.51"/><path d="M270,690L420,690L420,540Z" fill="#6c8dc0" stroke="#6c8dc0" stroke-width="1.51"/><path d="M270,540L270,690L420,540Z" fill="#7395c7" stroke="#7395c7" stroke-width="1.51"/><path d="M420,390L270,390L420,540Z" fill="#79a8d2" stroke="#79a8d2" stroke-width="1.51"/><path d="M270,390L270,540L420,540Z" fill="#79a3d1" stroke="#79a3d1" stroke-width="1.51"/><path d="M270,-60L120,-60L270,90Z" fill="#c5daef" stroke="#c5daef" stroke-width="1.51"/><path d="M120,-60L120,90L270,90Z" fill="#c0d9ec" stroke="#c0d9ec" stroke-width="1.51"/><path d="M120,-60L270,-60L270,-210Z" fill="#cfe1f2" stroke="#cfe1f2" stroke-width="1.51"/><path d="M120,-210L120,-60L270,-210Z" fill="#d6e5f4" stroke="#d6e5f4" stroke-width="1.51"/><path d="M120,690L270,690L270,540Z" fill="#7892c4" stroke="#7892c4" stroke-width="1.51"/><path d="M120,540L120,690L270,540Z" fill="#7e9aca" stroke="#7e9aca" stroke-width="1.51"/><path d="M270,390L120,390L270,540Z" fill="#85add6" stroke="#85add6" stroke-width="1.51"/><path d="M120,390L120,540L270,540Z" fill="#84a8d4" stroke="#84a8d4" stroke-width="1.51"/><path d="M270,90L120,90L270,240Z" fill="#adcfe6" stroke="#adcfe6" stroke-width="1.51"/><path d="M120,90L120,240L270,240Z" fill="#a7cce5" stroke="#a7cce5" stroke-width="1.51"/><path d="M120,390L270,390L270,240Z" fill="#8fbadd" stroke="#8fbadd" stroke-width="1.51"/><path d="M120,240L120,390L270,240Z" fill="#98c1e1" stroke="#98c1e1" stroke-width="1.51"/><path d="M120,-210L-30,-210L120,-60Z" fill="#dbe9f6" stroke="#dbe9f6" stroke-width="1.51"/><path d="M-30,-210L-30,-60L120,-60Z" fill="#d9e7f5" stroke="#d9e7f5" stroke-width="1.51"/><path d="M120,-60L-30,-60L120,90Z" fill="#ccdff1" stroke="#ccdff1" stroke-width="1.51"/><path d="M-30,-60L-30,90L120,90Z" fill="#c7deef" stroke="#c7deef" stroke-width="1.51"/><path d="M120,90L-30,90L120,240Z" fill="#b5d4e9" stroke="#b5d4e9" stroke-width="1.51"/><path d="M-30,90L-30,240L120,240Z" fill="#afd1e8" stroke="#afd1e8" stroke-width="1.51"/><path d="M-30,540L120,540L120,390Z" fill="#89abd6" stroke="#89abd6" stroke-width="1.51"/><path d="M-30,390L-30,540L120,390Z" fill="#90b3da" stroke="#90b3da" stroke-width="1.51"/><path d="M120,240L-30,240L120,390Z" fill="#9dc4e2" stroke="#9dc4e2" stroke-width="1.51"/><path d="M-30,240L-30,390L120,390Z" fill="#9ac0e0" stroke="#9ac0e0" stroke-width="1.51"/><path d="M120,540L-30,540L120,690Z" fill="#839dcc" stroke="#839dcc" stroke-width="1.51"/><path d="M-30,540L-30,690L120,690Z" fill="#8398c8" stroke="#8398c8" stroke-width="1.51"/><path d="M-30,-60L-180,-60L-30,90Z" fill="#d4e4f4" stroke="#d4e4f4" stroke-width="1.51"/><path d="M-180,-60L-180,90L-30,90Z" fill="#cfe3f1" stroke="#cfe3f1" stroke-width="1.51"/><path d="M-30,90L-180,90L-30,240Z" fill="#bdd9eb" stroke="#bdd9eb" stroke-width="1.51"/><path d="M-180,90L-180,240L-30,240Z" fill="#b7d6ea" stroke="#b7d6ea" stroke-width="1.51"/><path d="M-30,240L-180,240L-30,390Z" fill="#a5c8e5" stroke="#a5c8e5" stroke-width="1.51"/><path d="M-180,240L-180,390L-30,390Z" fill="#a2c5e3" stroke="#a2c5e3" stroke-width="1.51"/><path d="M-180,690L-30,690L-30,540Z" fill="#889bc9" stroke="#889bc9" stroke-width="1.51"/><path d="M-180,540L-180,690L-30,540Z" fill="#8da3cf" stroke="#8da3cf" stroke-width="1.51"/><path d="M-30,390L-180,390L-30,540Z" fill="#95b6db" stroke="#95b6db" stroke-width="1.51"/><path d="M-180,390L-180,540L-30,540Z" fill="#94b1d9" stroke="#94b1d9" stroke-width="1.51"/><path d="M-180,-60L-30,-60L-30,-210Z" fill="#deeaf6" stroke="#deeaf6" stroke-width="1.51"/><path d="M-180,-210L-180,-60L-30,-210Z" fill="#e5eff9" stroke="#e5eff9" stroke-width="1.51"/></svg>