<svg xmlns="http://www.w3.org/2000/svg" width="640" height="320"><path d="M-160,-246L-47,-236L418,-228Z" fill="#e16c41" stroke="#e16c41" stroke-width="1.51"/><path d="M-47,-236L81,-205L418,-228Z" fill="#e8824f" stroke="#e8824f" stroke-width="1.51"/><path d="M-160,-246L418,-228L571,-231Z" fill="#e99466" stroke="#e99466" stroke-width="1.51"/><path d="M571,-231L716,-187L829,-218Z" fill="#b67177" stroke="#b67177" stroke-width="1.51"/><path d="M829,-218L716,-187L860,-60Z" fill="#ad6775" stroke="#ad6775" stroke-width="1.51"/><path d="M644,508L509,529L860,585Z" fill="#5f8ac0" stroke="#5f8ac0" stroke-width="1.51"/><path d="M509,529L230,583L860,585Z" fill="#7e97c8" stroke="#7e97c8" stroke-width="1.51"/><path d="M856,423L683,431L860,585Z" fill="#5081bb" stroke="#5081bb" stroke-width="1.51"/><path d="M860,-60L713,91L883,86Z" fill="#af9b9b" stroke="#af9b9b" stroke-width="1.51"/><path d="M713,91L803,240L883,86Z" fill="#acb4b6" stroke="#acb4b6" stroke-width="1.51"/><path d="M803,240L856,423L883,86Z" fill="#93a4d0" stroke="#93a4d0" stroke-width="1.51"/><path d="M856,423L860,585L883,86Z" fill="#6f8dc3" stroke="#6f8dc3" stroke-width="1.51"/><path d="M663,283L683,431L803,240Z" fill="#91bdda" stroke="#91bdda" stroke-width="1.51"/><path d="M803,240L683,431L856,423Z" fill="#76a5ce" stroke="#76a5ce" stroke-width="1.51"/><path d="M716,-187L654,-70L860,-60Z" fill="#bd8284" stroke="#bd8284" stroke-width="1.51"/><path d="M654,-70L713,91L860,-60Z" fill="#bca096" stroke="#bca096" stroke-width="1.51"/><path d="M683,431L644,508L860,585Z" fill="#5789bf" stroke="#5789bf" stroke-width="1.51"/><path d="M713,91L663,283L803,240Z" fill="#aec7d2" stroke="#aec7d2" stroke-width="1.51"/><path d="M360,526L230,583L509,529Z" fill="#a1abc1" stroke="#a1abc1" stroke-width="1.51"/><path d="M654,-70L593,-67L713,91Z" fill="#ccb49e" stroke="#ccb49e" stroke-width="1.51"/><path d="M593,-67L533,133L713,91Z" fill="#d1cdb4" stroke="#d1cdb4" stroke-width="1.51"/><path d="M533,133L663,283L713,91Z" fill="#c7ddd0" stroke="#c7ddd0" stroke-width="1.51"/><path d="M571,-231L654,-70L716,-187Z" fill="#c98983" stroke="#c98983" stroke-width="1.51"/><path d="M571,-231L593,-67L654,-70Z" fill="#d59a8e" stroke="#d59a8e" stroke-width="1.51"/><path d="M533,133L507,281L663,283Z" fill="#c8e5ea" stroke="#c8e5ea" stroke-width="1.51"/><path d="M663,283L506,400L683,431Z" fill="#95c6df" stroke="#95c6df" stroke-width="1.51"/><path d="M506,400L644,508L683,431Z" fill="#80b4d5" stroke="#80b4d5" stroke-width="1.51"/><path d="M507,281L506,400L663,283Z" fill="#b1dbea" stroke="#b1dbea" stroke-width="1.51"/><path d="M506,400L509,529L644,508Z" fill="#86b4d6" stroke="#86b4d6" stroke-width="1.51"/><path d="M81,-205L275,-181L418,-228Z" fill="#f19764" stroke="#f19764" stroke-width="1.51"/><path d="M348,-49L366,111L533,133Z" fill="#f5e9bd" stroke="#f5e9bd" stroke-width="1.51"/><path d="M348,-49L533,133L593,-67Z" fill="#ecd2b0" stroke="#ecd2b0" stroke-width="1.51"/><path d="M571,-231L418,-228L593,-67Z" fill="#de988a" stroke="#de988a" stroke-width="1.51"/><path d="M418,-228L348,-49L593,-67Z" fill="#f4af99" stroke="#f4af99" stroke-width="1.51"/><path d="M506,400L446,435L509,529Z" fill="#9cc2de" stroke="#9cc2de" stroke-width="1.51"/><path d="M348,202L507,281L533,133Z" fill="#e4f3e9" stroke="#e4f3e9" stroke-width="1.51"/><path d="M366,111L348,202L533,133Z" fill="#f4f8d3" stroke="#f4f8d3" stroke-width="1.51"/><path d="M268,355L446,435L507,281Z" fill="#c7e3e7" stroke="#c7e3e7" stroke-width="1.51"/><path d="M348,202L268,355L507,281Z" fill="#e1f1e6" stroke="#e1f1e6" stroke-width="1.51"/><path d="M446,435L506,400L507,281Z" fill="#b2d9e9" stroke="#b2d9e9" stroke-width="1.51"/><path d="M446,435L360,526L509,529Z" fill="#9db9da" stroke="#9db9da" stroke-width="1.51"/><path d="M275,-181L348,-49L418,-228Z" fill="#f9ab7d" stroke="#f9ab7d" stroke-width="1.51"/><path d="M268,355L360,526L446,435Z" fill="#b8d0d0" stroke="#b8d0d0" stroke-width="1.51"/><path d="M232,230L268,355L348,202Z" fill="#eef2d3" stroke="#eef2d3" stroke-width="1.51"/><path d="M266,-76L231,114L348,-49Z" fill="#ffd68c" stroke="#ffd68c" stroke-width="1.51"/><path d="M275,-181L266,-76L348,-49Z" fill="#ffb87c" stroke="#ffb87c" stroke-width="1.51"/><path d="M268,355L230,583L360,526Z" fill="#b3bdba" stroke="#b3bdba" stroke-width="1.51"/><path d="M348,-49L231,114L366,111Z" fill="#ffeca3" stroke="#ffeca3" stroke-width="1.51"/><path d="M231,114L348,202L366,111Z" fill="#fffbb9" stroke="#fffbb9" stroke-width="1.51"/><path d="M231,114L232,230L348,202Z" fill="#fcf7bc" stroke="#fcf7bc" stroke-width="1.51"/><path d="M91,-106L72,101L231,114Z" fill="#ffc979" stroke="#ffc979" stroke-width="1.51"/><path d="M91,-106L231,114L266,-76Z" fill="#fec577" stroke="#fec577" stroke-width="1.51"/><path d="M72,490L230,583L268,355Z" fill="#b9b5aa" stroke="#b9b5aa" stroke-width="1.51"/><path d="M94,367L72,490L268,355Z" fill="#ccc1aa" stroke="#ccc1aa" stroke-width="1.51"/><path d="M232,230L121,256L268,355Z" fill="#eae6c3" stroke="#eae6c3" stroke-width="1.51"/><path d="M91,-106L266,-76L275,-181Z" fill="#fca768" stroke="#fca768" stroke-width="1.51"/><path d="M81,-205L91,-106L275,-181Z" fill="#f48f56" stroke="#f48f56" stroke-width="1.51"/><path d="M121,256L94,367L268,355Z" fill="#e0d6b7" stroke="#e0d6b7" stroke-width="1.51"/><path d="M72,490L-53,565L230,583Z" fill="#af878b" stroke="#af878b" stroke-width="1.51"/><path d="M72,101L121,256L231,114Z" fill="#ffe39b" stroke="#ffe39b" stroke-width="1.51"/><path d="M231,114L121,256L232,230Z" fill="#faecb4" stroke="#faecb4" stroke-width="1.51"/><path d="M-94,-34L72,101L91,-106Z" fill="#fca15b" stroke="#fca15b" stroke-width="1.51"/><path d="M-12,399L72,490L94,367Z" fill="#caa998" stroke="#caa998" stroke-width="1.51"/><path d="M-58,240L94,367L121,256Z" fill="#edc4a6" stroke="#edc4a6" stroke-width="1.51"/><path d="M72,101L-58,240L121,256Z" fill="#fdcb97" stroke="#fdcb97" stroke-width="1.51"/><path d="M-94,-34L-80,96L72,101Z" fill="#fca665" stroke="#fca665" stroke-width="1.51"/><path d="M81,-205L-47,-236L91,-106Z" fill="#ed7041" stroke="#ed7041" stroke-width="1.51"/><path d="M-58,240L-12,399L94,367Z" fill="#e1b29c" stroke="#e1b29c" stroke-width="1.51"/><path d="M-47,-236L-94,-34L91,-106Z" fill="#f37043" stroke="#f37043" stroke-width="1.51"/><path d="M-80,96L-58,240L72,101Z" fill="#ffba7d" stroke="#ffba7d" stroke-width="1.51"/><path d="M-12,399L-53,565L72,490Z" fill="#bb8988" stroke="#bb8988" stroke-width="1.51"/><path d="M-162,261L-175,367L-58,240Z" fill="#e49b8b" stroke="#e49b8b" stroke-width="1.51"/><path d="M-216,-113L-94,-34L-47,-236Z" fill="#e85536" stroke="#e85536" stroke-width="1.51"/><path d="M-160,-246L-216,-113L-47,-236Z" fill="#da3729" stroke="#da3729" stroke-width="1.51"/><path d="M-175,367L-53,565L-12,399Z" fill="#c28482" stroke="#c28482" stroke-width="1.51"/><path d="M-58,240L-175,367L-12,399Z" fill="#de9e8f" stroke="#de9e8f" stroke-width="1.51"/><path d="M-94,-34L-169,49L-80,96Z" fill="#f49056" stroke="#f49056" stroke-width="1.51"/><path d="M-80,96L-162,261L-58,240Z" fill="#f7a983" stroke="#f7a983" stroke-width="1.51"/><path d="M-175,367L-258,495L-53,565Z" fill="#b26a73" stroke="#b26a73" stroke-width="1.51"/><path d="M-169,49L-162,261L-80,96Z" fill="#f6a06c" stroke="#f6a06c" stroke-width="1.51"/><path d="M-216,-113L-169,49L-94,-34Z" fill="#eb7141" stroke="#eb7141" stroke-width="1.51"/><path d="M-169,49L-258,495L-162,261Z" fill="#df9388" stroke="#df9388" stroke-width="1.51"/><path d="M-216,-113L-258,495L-169,49Z" fill="#e8966a" stroke="#e8966a" stroke-width="1.51"/><path d="M-258,495L-175,367L-162,261Z" fill="#c4817f" stroke="#c4817f" stroke-width="1.51"/></svg>