<svg xmlns="http://www.w3.org/2000/svg" width="640" height="320"><path d="M-167,-242L-49,-233L414,-227Z" fill="#cc7f32" stroke="#cc7f32" stroke-width="1.51"/><path d="M-49,-233L83,-206L414,-227Z" fill="#d48f4f" stroke="#d48f4f" stroke-width="1.51"/><path d="M-167,-242L414,-227L567,-228Z" fill="#d49b71" stroke="#d49b71" stroke-width="1.51"/><path d="M567,-228L713,-191L831,-217Z" fill="#9d5b5d" stroke="#9d5b5d" stroke-width="1.51"/><path d="M809,239L684,424L854,417Z" fill="#8268ab" stroke="#8268ab" stroke-width="1.51"/><path d="M831,-217L713,-191L858,-61Z" fill="#994757" stroke="#994757" stroke-width="1.51"/><path d="M651,512L514,530L858,578Z" fill="#674b94" stroke="#674b94" stroke-width="1.51"/><path d="M514,530L232,576L858,578Z" fill="#7f64a0" stroke="#7f64a0" stroke-width="1.51"/><path d="M854,417L684,424L858,578Z" fill="#613c92" stroke="#613c92" stroke-width="1.51"/><path d="M684,424L651,512L858,578Z" fill="#654496" stroke="#654496" stroke-width="1.51"/><path d="M858,-61L710,90L878,86Z" fill="#ab7790" stroke="#ab7790" stroke-width="1.51"/><path d="M710,90L809,239L878,86Z" fill="#a989b8" stroke="#a989b8" stroke-width="1.51"/><path d="M809,239L854,417L878,86Z" fill="#8f76ac" stroke="#8f76ac" stroke-width="1.51"/><path d="M854,417L858,578L878,86Z" fill="#745797" stroke="#745797" stroke-width="1.51"/><path d="M668,276L684,424L809,239Z" fill="#9888bc" stroke="#9888bc" stroke-width="1.51"/><path d="M713,-191L660,-69L858,-61Z" fill="#af6564" stroke="#af6564" stroke-width="1.51"/><path d="M660,-69L710,90L858,-61Z" fill="#b98185" stroke="#b98185" stroke-width="1.51"/><path d="M365,527L232,576L514,530Z" fill="#9a80b4" stroke="#9a80b4" stroke-width="1.51"/><path d="M710,90L668,276L809,239Z" fill="#ac9cc7" stroke="#ac9cc7" stroke-width="1.51"/><path d="M567,-228L586,-67L660,-69Z" fill="#c78974" stroke="#c78974" stroke-width="1.51"/><path d="M660,-69L586,-67L710,90Z" fill="#ca9c91" stroke="#ca9c91" stroke-width="1.51"/><path d="M586,-67L534,126L710,90Z" fill="#d1b4b4" stroke="#d1b4b4" stroke-width="1.51"/><path d="M534,126L668,276L710,90Z" fill="#c4bdd7" stroke="#c4bdd7" stroke-width="1.51"/><path d="M567,-228L660,-69L713,-191Z" fill="#b57569" stroke="#b57569" stroke-width="1.51"/><path d="M534,126L512,274L668,276Z" fill="#c6c4de" stroke="#c6c4de" stroke-width="1.51"/><path d="M512,274L511,398L668,276Z" fill="#b6b0d5" stroke="#b6b0d5" stroke-width="1.51"/><path d="M668,276L511,398L684,424Z" fill="#9e94c3" stroke="#9e94c3" stroke-width="1.51"/><path d="M511,398L651,512L684,424Z" fill="#8a7cb3" stroke="#8a7cb3" stroke-width="1.51"/><path d="M83,-206L271,-186L414,-227Z" fill="#dc9f6f" stroke="#dc9f6f" stroke-width="1.51"/><path d="M511,398L514,530L651,512Z" fill="#8e79b5" stroke="#8e79b5" stroke-width="1.51"/><path d="M354,-51L370,107L534,126Z" fill="#f0ddcd" stroke="#f0ddcd" stroke-width="1.51"/><path d="M354,-51L534,126L586,-67Z" fill="#e8c4ad" stroke="#e8c4ad" stroke-width="1.51"/><path d="M567,-228L414,-227L586,-67Z" fill="#ca8e77" stroke="#ca8e77" stroke-width="1.51"/><path d="M414,-227L354,-51L586,-67Z" fill="#e4aa84" stroke="#e4aa84" stroke-width="1.51"/><path d="M439,428L511,398L512,274Z" fill="#b6b0d4" stroke="#b6b0d4" stroke-width="1.51"/><path d="M511,398L439,428L514,530Z" fill="#a093c2" stroke="#a093c2" stroke-width="1.51"/><path d="M354,207L512,274L534,126Z" fill="#dcdceb" stroke="#dcdceb" stroke-width="1.51"/><path d="M370,107L354,207L534,126Z" fill="#ebe9ed" stroke="#ebe9ed" stroke-width="1.51"/><path d="M354,207L439,428L512,274Z" fill="#cdcce4" stroke="#cdcce4" stroke-width="1.51"/><path d="M439,428L365,527L514,530Z" fill="#9d89be" stroke="#9d89be" stroke-width="1.51"/><path d="M271,-186L354,-51L414,-227Z" fill="#e7ae84" stroke="#e7ae84" stroke-width="1.51"/><path d="M264,360L365,527L439,428Z" fill="#b5abce" stroke="#b5abce" stroke-width="1.51"/><path d="M354,207L264,360L439,428Z" fill="#d2cfe4" stroke="#d2cfe4" stroke-width="1.51"/><path d="M234,231L264,360L354,207Z" fill="#e6e1e5" stroke="#e6e1e5" stroke-width="1.51"/><path d="M263,-74L233,110L354,-51Z" fill="#ffd7aa" stroke="#ffd7aa" stroke-width="1.51"/><path d="M271,-186L263,-74L354,-51Z" fill="#f6bb86" stroke="#f6bb86" stroke-width="1.51"/><path d="M264,360L232,576L365,527Z" fill="#b097bd" stroke="#b097bd" stroke-width="1.51"/><path d="M354,-51L233,110L370,107Z" fill="#fde8cf" stroke="#fde8cf" stroke-width="1.51"/><path d="M233,110L354,207L370,107Z" fill="#f8f4ef" stroke="#f8f4ef" stroke-width="1.51"/><path d="M233,110L234,231L354,207Z" fill="#f5efe9" stroke="#f5efe9" stroke-width="1.51"/><path d="M91,-100L75,99L233,110Z" fill="#ffcd90" stroke="#ffcd90" stroke-width="1.51"/><path d="M91,-100L233,110L263,-74Z" fill="#ffcb8b" stroke="#ffcb8b" stroke-width="1.51"/><path d="M75,496L232,576L264,360Z" fill="#b692a6" stroke="#b692a6" stroke-width="1.51"/><path d="M94,369L75,496L264,360Z" fill="#c9a5a4" stroke="#c9a5a4" stroke-width="1.51"/><path d="M234,231L117,253L264,360Z" fill="#e6d5ce" stroke="#e6d5ce" stroke-width="1.51"/><path d="M91,-100L263,-74L271,-186Z" fill="#f1af6b" stroke="#f1af6b" stroke-width="1.51"/><path d="M83,-206L91,-100L271,-186Z" fill="#e49b53" stroke="#e49b53" stroke-width="1.51"/><path d="M117,253L94,369L264,360Z" fill="#dec1b8" stroke="#dec1b8" stroke-width="1.51"/><path d="M75,496L-54,561L232,576Z" fill="#a86774" stroke="#a86774" stroke-width="1.51"/><path d="M75,99L117,253L233,110Z" fill="#fee0c0" stroke="#fee0c0" stroke-width="1.51"/><path d="M233,110L117,253L234,231Z" fill="#f6e4d2" stroke="#f6e4d2" stroke-width="1.51"/><path d="M-88,-38L75,99L91,-100Z" fill="#f8ad57" stroke="#f8ad57" stroke-width="1.51"/><path d="M-18,397L75,496L94,369Z" fill="#c59185" stroke="#c59185" stroke-width="1.51"/><path d="M-58,239L-18,397L94,369Z" fill="#d9a288" stroke="#d9a288" stroke-width="1.51"/><path d="M-58,239L94,369L117,253Z" fill="#e7b89b" stroke="#e7b89b" stroke-width="1.51"/><path d="M75,99L-58,239L117,253Z" fill="#f7c9a0" stroke="#f7c9a0" stroke-width="1.51"/><path d="M-88,-38L-77,94L75,99Z" fill="#f4af65" stroke="#f4af65" stroke-width="1.51"/><path d="M-77,94L-58,239L75,99Z" fill="#f7be8a" stroke="#f7be8a" stroke-width="1.51"/><path d="M83,-206L-49,-233L91,-100Z" fill="#d9842d" stroke="#d9842d" stroke-width="1.51"/><path d="M-49,-233L-88,-38L91,-100Z" fill="#e0841e" stroke="#e0841e" stroke-width="1.51"/><path d="M-18,397L-54,561L75,496Z" fill="#b16a6c" stroke="#b16a6c" stroke-width="1.51"/><path d="M-168,257L-179,369L-58,239Z" fill="#cd9379" stroke="#cd9379" stroke-width="1.51"/><path d="M-215,-106L-88,-38L-49,-233Z" fill="#cd710e" stroke="#cd710e" stroke-width="1.51"/><path d="M-167,-242L-215,-106L-49,-233Z" fill="#b75c07" stroke="#b75c07" stroke-width="1.51"/><path d="M-179,369L-54,561L-18,397Z" fill="#af6d65" stroke="#af6d65" stroke-width="1.51"/><path d="M-58,239L-179,369L-18,397Z" fill="#cd9078" stroke="#cd9078" stroke-width="1.51"/><path d="M-88,-38L-175,54L-77,94Z" fill="#e49c55" stroke="#e49c55" stroke-width="1.51"/><path d="M-77,94L-168,257L-58,239Z" fill="#e4aa83" stroke="#e4aa83" stroke-width="1.51"/><path d="M-179,369L-250,500L-54,561Z" fill="#995059" stroke="#995059" stroke-width="1.51"/><path d="M-175,54L-168,257L-77,94Z" fill="#e2a679" stroke="#e2a679" stroke-width="1.51"/><path d="M-215,-106L-175,54L-88,-38Z" fill="#d78434" stroke="#d78434" stroke-width="1.51"/><path d="M-175,54L-250,500L-168,257Z" fill="#c38e77" stroke="#c38e77" stroke-width="1.51"/><path d="M-215,-106L-250,500L-175,54Z" fill="#d19d7a" stroke="#d19d7a" stroke-width="1.51"/><path d="M-250,500L-179,369L-168,257Z" fill="#ab7169" stroke="#ab7169" stroke-width="1.51"/></svg>