<svg xmlns="http://www.w3.org/2000/svg" width="640" height="320"><path d="M-160,-246L-47,-236L418,-228Z" fill="#de6f55" stroke="#de6f55" stroke-width="1.51"/><path d="M-47,-236L81,-205L418,-228Z" fill="#e58563" stroke="#e58563" stroke-width="1.51"/><path d="M-160,-246L418,-228L571,-231Z" fill="#e49679" stroke="#e49679" stroke-width="1.51"/><path d="M571,-231L716,-187L829,-218Z" fill="#ac817a" stroke="#ac817a" stroke-width="1.51"/><path d="M829,-218L716,-187L860,-60Z" fill="#ab7483" stroke="#ab7483" stroke-width="1.51"/><path d="M644,508L509,529L860,585Z" fill="#5d9faf" stroke="#5d9faf" stroke-width="1.51"/><path d="M509,529L230,583L860,585Z" fill="#8ba5aa" stroke="#8ba5aa" stroke-width="1.51"/><path d="M856,423L683,431L860,585Z" fill="#4394b8" stroke="#4394b8" stroke-width="1.51"/><path d="M860,-60L713,91L883,86Z" fill="#b0a59e" stroke="#b0a59e" stroke-width="1.51"/><path d="M713,91L803,240L883,86Z" fill="#a9beba" stroke="#a9beba" stroke-width="1.51"/><path d="M803,240L856,423L883,86Z" fill="#a3b1a8" stroke="#a3b1a8" stroke-width="1.51"/><path d="M856,423L860,585L883,86Z" fill="#7c9eab" stroke="#7c9eab" stroke-width="1.51"/><path d="M663,283L683,431L803,240Z" fill="#8fc9a8" stroke="#8fc9a8" stroke-width="1.51"/><path d="M803,240L683,431L856,423Z" fill="#74b3b0" stroke="#74b3b0" stroke-width="1.51"/><path d="M716,-187L654,-70L860,-60Z" fill="#ba8e7b" stroke="#ba8e7b" stroke-width="1.51"/><path d="M654,-70L713,91L860,-60Z" fill="#b8ab8d" stroke="#b8ab8d" stroke-width="1.51"/><path d="M683,431L644,508L860,585Z" fill="#4c9cb5" stroke="#4c9cb5" stroke-width="1.51"/><path d="M713,91L663,283L803,240Z" fill="#acd2af" stroke="#acd2af" stroke-width="1.51"/><path d="M360,526L230,583L509,529Z" fill="#a7b7b5" stroke="#a7b7b5" stroke-width="1.51"/><path d="M654,-70L593,-67L713,91Z" fill="#c5be85" stroke="#c5be85" stroke-width="1.51"/><path d="M593,-67L533,133L713,91Z" fill="#ccd494" stroke="#ccd494" stroke-width="1.51"/><path d="M533,133L663,283L713,91Z" fill="#c1e5b0" stroke="#c1e5b0" stroke-width="1.51"/><path d="M571,-231L654,-70L716,-187Z" fill="#c09676" stroke="#c09676" stroke-width="1.51"/><path d="M571,-231L593,-67L654,-70Z" fill="#cfa374" stroke="#cfa374" stroke-width="1.51"/><path d="M533,133L507,281L663,283Z" fill="#cae9a2" stroke="#cae9a2" stroke-width="1.51"/><path d="M663,283L506,400L683,431Z" fill="#91d2a5" stroke="#91d2a5" stroke-width="1.51"/><path d="M506,400L644,508L683,431Z" fill="#79c4a8" stroke="#79c4a8" stroke-width="1.51"/><path d="M507,281L506,400L663,283Z" fill="#b2dfa3" stroke="#b2dfa3" stroke-width="1.51"/><path d="M506,400L509,529L644,508Z" fill="#85bfac" stroke="#85bfac" stroke-width="1.51"/><path d="M81,-205L275,-181L418,-228Z" fill="#ee9b77" stroke="#ee9b77" stroke-width="1.51"/><path d="M348,-49L366,111L533,133Z" fill="#f5ea94" stroke="#f5ea94" stroke-width="1.51"/><path d="M348,-49L533,133L593,-67Z" fill="#e9d485" stroke="#e9d485" stroke-width="1.51"/><path d="M571,-231L418,-228L593,-67Z" fill="#d79f75" stroke="#d79f75" stroke-width="1.51"/><path d="M418,-228L348,-49L593,-67Z" fill="#f0b26d" stroke="#f0b26d" stroke-width="1.51"/><path d="M506,400L446,435L509,529Z" fill="#9ccfa5" stroke="#9ccfa5" stroke-width="1.51"/><path d="M348,202L507,281L533,133Z" fill="#e7f5a2" stroke="#e7f5a2" stroke-width="1.51"/><path d="M366,111L348,202L533,133Z" fill="#f5f9ac" stroke="#f5f9ac" stroke-width="1.51"/><path d="M268,355L446,435L507,281Z" fill="#c7e8a4" stroke="#c7e8a4" stroke-width="1.51"/><path d="M348,202L268,355L507,281Z" fill="#e4f4a4" stroke="#e4f4a4" stroke-width="1.51"/><path d="M446,435L506,400L507,281Z" fill="#b3dfa1" stroke="#b3dfa1" stroke-width="1.51"/><path d="M446,435L360,526L509,529Z" fill="#a2c5aa" stroke="#a2c5aa" stroke-width="1.51"/><path d="M275,-181L348,-49L418,-228Z" fill="#f6ae7d" stroke="#f6ae7d" stroke-width="1.51"/><path d="M268,355L360,526L446,435Z" fill="#b2dcae" stroke="#b2dcae" stroke-width="1.51"/><path d="M232,230L268,355L348,202Z" fill="#eff4a5" stroke="#eff4a5" stroke-width="1.51"/><path d="M266,-76L231,114L348,-49Z" fill="#ffd68b" stroke="#ffd68b" stroke-width="1.51"/><path d="M275,-181L266,-76L348,-49Z" fill="#ffb87c" stroke="#ffb87c" stroke-width="1.51"/><path d="M268,355L230,583L360,526Z" fill="#afc8b4" stroke="#afc8b4" stroke-width="1.51"/><path d="M348,-49L231,114L366,111Z" fill="#ffeca1" stroke="#ffeca1" stroke-width="1.51"/><path d="M231,114L348,202L366,111Z" fill="#fffbb9" stroke="#fffbb9" stroke-width="1.51"/><path d="M231,114L232,230L348,202Z" fill="#fcf8af" stroke="#fcf8af" stroke-width="1.51"/><path d="M91,-106L72,101L231,114Z" fill="#fec977" stroke="#fec977" stroke-width="1.51"/><path d="M91,-106L231,114L266,-76Z" fill="#fec575" stroke="#fec575" stroke-width="1.51"/><path d="M72,490L230,583L268,355Z" fill="#b4c09e" stroke="#b4c09e" stroke-width="1.51"/><path d="M94,367L72,490L268,355Z" fill="#c5cb8f" stroke="#c5cb8f" stroke-width="1.51"/><path d="M232,230L121,256L268,355Z" fill="#e9e895" stroke="#e9e895" stroke-width="1.51"/><path d="M91,-106L266,-76L275,-181Z" fill="#fba869" stroke="#fba869" stroke-width="1.51"/><path d="M81,-205L91,-106L275,-181Z" fill="#f29261" stroke="#f29261" stroke-width="1.51"/><path d="M121,256L94,367L268,355Z" fill="#ddd990" stroke="#ddd990" stroke-width="1.51"/><path d="M72,490L-53,565L230,583Z" fill="#b3928f" stroke="#b3928f" stroke-width="1.51"/><path d="M72,101L121,256L231,114Z" fill="#ffe399" stroke="#ffe399" stroke-width="1.51"/><path d="M231,114L121,256L232,230Z" fill="#faed9b" stroke="#faed9b" stroke-width="1.51"/><path d="M-94,-34L72,101L91,-106Z" fill="#fca15b" stroke="#fca15b" stroke-width="1.51"/><path d="M-12,399L72,490L94,367Z" fill="#c3b580" stroke="#c3b580" stroke-width="1.51"/><path d="M-58,240L94,367L121,256Z" fill="#eac77b" stroke="#eac77b" stroke-width="1.51"/><path d="M72,101L-58,240L121,256Z" fill="#fbcc82" stroke="#fbcc82" stroke-width="1.51"/><path d="M-94,-34L-80,96L72,101Z" fill="#fca663" stroke="#fca663" stroke-width="1.51"/><path d="M81,-205L-47,-236L91,-106Z" fill="#ec7352" stroke="#ec7352" stroke-width="1.51"/><path d="M-58,240L-12,399L94,367Z" fill="#dcb678" stroke="#dcb678" stroke-width="1.51"/><path d="M-47,-236L-94,-34L91,-106Z" fill="#f37048" stroke="#f37048" stroke-width="1.51"/><path d="M-80,96L-58,240L72,101Z" fill="#ffba7d" stroke="#ffba7d" stroke-width="1.51"/><path d="M-12,399L-53,565L72,490Z" fill="#b99482" stroke="#b99482" stroke-width="1.51"/><path d="M-162,261L-175,367L-58,240Z" fill="#dda074" stroke="#dda074" stroke-width="1.51"/><path d="M-216,-113L-94,-34L-47,-236Z" fill="#e75a49" stroke="#e75a49" stroke-width="1.51"/><path d="M-160,-246L-216,-113L-47,-236Z" fill="#d8434e" stroke="#d8434e" stroke-width="1.51"/><path d="M-175,367L-53,565L-12,399Z" fill="#ba9277" stroke="#ba9277" stroke-width="1.51"/><path d="M-58,240L-175,367L-12,399Z" fill="#d7a374" stroke="#d7a374" stroke-width="1.51"/><path d="M-94,-34L-169,49L-80,96Z" fill="#f29362" stroke="#f29362" stroke-width="1.51"/><path d="M-80,96L-162,261L-58,240Z" fill="#f3ad7a" stroke="#f3ad7a" stroke-width="1.51"/><path d="M-175,367L-258,495L-53,565Z" fill="#aa7a7f" stroke="#aa7a7f" stroke-width="1.51"/><path d="M-169,49L-162,261L-80,96Z" fill="#f3a47d" stroke="#f3a47d" stroke-width="1.51"/><path d="M-216,-113L-169,49L-94,-34Z" fill="#e97557" stroke="#e97557" stroke-width="1.51"/><path d="M-169,49L-258,495L-162,261Z" fill="#d79872" stroke="#d79872" stroke-width="1.51"/><path d="M-216,-113L-258,495L-169,49Z" fill="#e4987d" stroke="#e4987d" stroke-width="1.51"/><path d="M-258,495L-175,367L-162,261Z" fill="#ba8b76" stroke="#ba8b76" stroke-width="1.51"/></svg>