<svg xmlns="http://www.w3.org/2000/svg" width="640" height="320"><path d="M-154,-250L-46,-239L421,-230Z" fill="#ffddb8" stroke="#ffddb8" stroke-width="1.51"/><path d="M-154,-250L421,-230L575,-233Z" fill="#ffc59e" stroke="#ffc59e" stroke-width="1.51"/><path d="M575,-233L719,-182L826,-218Z" fill="#eb8d6c" stroke="#eb8d6c" stroke-width="1.51"/><path d="M637,504L503,528L862,592Z" fill="#b5150b" stroke="#b5150b" stroke-width="1.51"/><path d="M503,528L228,590L862,592Z" fill="#bb2f1c" stroke="#bb2f1c" stroke-width="1.51"/><path d="M858,428L681,438L862,592Z" fill="#af0302" stroke="#af0302" stroke-width="1.51"/><path d="M826,-218L719,-182L863,-60Z" fill="#db825c" stroke="#db825c" stroke-width="1.51"/><path d="M863,-60L715,92L889,86Z" fill="#d26d42" stroke="#d26d42" stroke-width="1.51"/><path d="M715,92L797,241L889,86Z" fill="#d45931" stroke="#d45931" stroke-width="1.51"/><path d="M797,241L858,428L889,86Z" fill="#c54026" stroke="#c54026" stroke-width="1.51"/><path d="M858,428L862,592L889,86Z" fill="#b52113" stroke="#b52113" stroke-width="1.51"/><path d="M-46,-239L79,-203L421,-230Z" fill="#ffd6af" stroke="#ffd6af" stroke-width="1.51"/><path d="M659,290L681,438L797,241Z" fill="#d33722" stroke="#d33722" stroke-width="1.51"/><path d="M797,241L681,438L858,428Z" fill="#c52313" stroke="#c52313" stroke-width="1.51"/><path d="M681,438L637,504L862,592Z" fill="#b40a04" stroke="#b40a04" stroke-width="1.51"/><path d="M719,-182L648,-70L863,-60Z" fill="#e38257" stroke="#e38257" stroke-width="1.51"/><path d="M648,-70L715,92L863,-60Z" fill="#e1784a" stroke="#e1784a" stroke-width="1.51"/><path d="M715,92L659,290L797,241Z" fill="#db512e" stroke="#db512e" stroke-width="1.51"/><path d="M355,525L228,590L503,528Z" fill="#ca4c2a" stroke="#ca4c2a" stroke-width="1.51"/><path d="M648,-70L600,-67L715,92Z" fill="#eb8153" stroke="#eb8153" stroke-width="1.51"/><path d="M600,-67L531,140L715,92Z" fill="#ee7b4f" stroke="#ee7b4f" stroke-width="1.51"/><path d="M531,140L659,290L715,92Z" fill="#e75f39" stroke="#e75f39" stroke-width="1.51"/><path d="M575,-233L648,-70L719,-182Z" fill="#f0906b" stroke="#f0906b" stroke-width="1.51"/><path d="M575,-233L600,-67L648,-70Z" fill="#f39068" stroke="#f39068" stroke-width="1.51"/><path d="M531,140L502,287L659,290Z" fill="#ea5c3d" stroke="#ea5c3d" stroke-width="1.51"/><path d="M659,290L500,402L681,438Z" fill="#d93421" stroke="#d93421" stroke-width="1.51"/><path d="M500,402L637,504L681,438Z" fill="#ce2a19" stroke="#ce2a19" stroke-width="1.51"/><path d="M502,287L500,402L659,290Z" fill="#e34c32" stroke="#e34c32" stroke-width="1.51"/><path d="M500,402L503,528L637,504Z" fill="#ce321d" stroke="#ce321d" stroke-width="1.51"/><path d="M341,-46L531,140L600,-67Z" fill="#f79466" stroke="#f79466" stroke-width="1.51"/><path d="M575,-233L421,-230L600,-67Z" fill="#f9a07d" stroke="#f9a07d" stroke-width="1.51"/><path d="M421,-230L341,-46L600,-67Z" fill="#fba57b" stroke="#fba57b" stroke-width="1.51"/><path d="M79,-203L280,-176L421,-230Z" fill="#ffc69c" stroke="#ffc69c" stroke-width="1.51"/><path d="M500,402L453,443L503,528Z" fill="#d74128" stroke="#d74128" stroke-width="1.51"/><path d="M341,-46L361,115L531,140Z" fill="#f99465" stroke="#f99465" stroke-width="1.51"/><path d="M341,198L502,287L531,140Z" fill="#f4724d" stroke="#f4724d" stroke-width="1.51"/><path d="M361,115L341,198L531,140Z" fill="#f88355" stroke="#f88355" stroke-width="1.51"/><path d="M453,443L500,402L502,287Z" fill="#e34c33" stroke="#e34c33" stroke-width="1.51"/><path d="M271,351L453,443L502,287Z" fill="#e95c3b" stroke="#e95c3b" stroke-width="1.51"/><path d="M341,198L271,351L502,287Z" fill="#f3714c" stroke="#f3714c" stroke-width="1.51"/><path d="M453,443L355,525L503,528Z" fill="#d34327" stroke="#d34327" stroke-width="1.51"/><path d="M280,-176L341,-46L421,-230Z" fill="#ffb589" stroke="#ffb589" stroke-width="1.51"/><path d="M271,351L355,525L453,443Z" fill="#e05732" stroke="#e05732" stroke-width="1.51"/><path d="M231,230L271,351L341,198Z" fill="#f78257" stroke="#f78257" stroke-width="1.51"/><path d="M269,-77L229,118L341,-46Z" fill="#feb079" stroke="#feb079" stroke-width="1.51"/><path d="M280,-176L269,-77L341,-46Z" fill="#ffb785" stroke="#ffb785" stroke-width="1.51"/><path d="M271,351L228,590L355,525Z" fill="#db5d33" stroke="#db5d33" stroke-width="1.51"/><path d="M341,-46L229,118L361,115Z" fill="#fda36d" stroke="#fda36d" stroke-width="1.51"/><path d="M229,118L341,198L361,115Z" fill="#fd925d" stroke="#fd925d" stroke-width="1.51"/><path d="M229,118L231,230L341,198Z" fill="#fc925f" stroke="#fc925f" stroke-width="1.51"/><path d="M90,-112L69,103L229,118Z" fill="#fdc089" stroke="#fdc089" stroke-width="1.51"/><path d="M90,-112L229,118L269,-77Z" fill="#fdbf88" stroke="#fdbf88" stroke-width="1.51"/><path d="M69,483L228,590L271,351Z" fill="#df6e41" stroke="#df6e41" stroke-width="1.51"/><path d="M93,364L69,483L271,351Z" fill="#eb7d50" stroke="#eb7d50" stroke-width="1.51"/><path d="M231,230L124,259L271,351Z" fill="#f68a5e" stroke="#f68a5e" stroke-width="1.51"/><path d="M90,-112L269,-77L280,-176Z" fill="#ffc695" stroke="#ffc695" stroke-width="1.51"/><path d="M79,-203L90,-112L280,-176Z" fill="#ffd2a5" stroke="#ffd2a5" stroke-width="1.51"/><path d="M124,259L93,364L271,351Z" fill="#f3885c" stroke="#f3885c" stroke-width="1.51"/><path d="M69,483L-53,569L228,590Z" fill="#d17347" stroke="#d17347" stroke-width="1.51"/><path d="M69,103L124,259L229,118Z" fill="#fda771" stroke="#fda771" stroke-width="1.51"/><path d="M229,118L124,259L231,230Z" fill="#fb9a67" stroke="#fb9a67" stroke-width="1.51"/><path d="M-99,-29L69,103L90,-112Z" fill="#fdce98" stroke="#fdce98" stroke-width="1.51"/><path d="M-59,240L93,364L124,259Z" fill="#f8996c" stroke="#f8996c" stroke-width="1.51"/><path d="M69,103L-59,240L124,259Z" fill="#fca876" stroke="#fca876" stroke-width="1.51"/><path d="M-99,-29L-84,97L69,103Z" fill="#feca97" stroke="#feca97" stroke-width="1.51"/><path d="M79,-203L-46,-239L90,-112Z" fill="#feddb2" stroke="#feddb2" stroke-width="1.51"/><path d="M-6,401L69,483L93,364Z" fill="#eb8355" stroke="#eb8355" stroke-width="1.51"/><path d="M-59,240L-6,401L93,364Z" fill="#f49467" stroke="#f49467" stroke-width="1.51"/><path d="M-46,-239L-99,-29L90,-112Z" fill="#fedcaf" stroke="#fedcaf" stroke-width="1.51"/><path d="M-84,97L-59,240L69,103Z" fill="#ffb783" stroke="#ffb783" stroke-width="1.51"/><path d="M-6,401L-53,569L69,483Z" fill="#e17e51" stroke="#e17e51" stroke-width="1.51"/><path d="M-156,265L-171,364L-59,240Z" fill="#fba583" stroke="#fba583" stroke-width="1.51"/><path d="M-218,-120L-99,-29L-46,-239Z" fill="#fee3bd" stroke="#fee3bd" stroke-width="1.51"/><path d="M-154,-250L-218,-120L-46,-239Z" fill="#feeacd" stroke="#feeacd" stroke-width="1.51"/><path d="M-171,364L-53,569L-6,401Z" fill="#e98961" stroke="#e98961" stroke-width="1.51"/><path d="M-59,240L-171,364L-6,401Z" fill="#f69973" stroke="#f69973" stroke-width="1.51"/><path d="M-99,-29L-164,44L-84,97Z" fill="#ffd1a5" stroke="#ffd1a5" stroke-width="1.51"/><path d="M-84,97L-156,265L-59,240Z" fill="#ffb288" stroke="#ffb288" stroke-width="1.51"/><path d="M-171,364L-265,489L-53,569Z" fill="#e68a68" stroke="#e68a68" stroke-width="1.51"/><path d="M-164,44L-156,265L-84,97Z" fill="#ffc095" stroke="#ffc095" stroke-width="1.51"/><path d="M-218,-120L-164,44L-99,-29Z" fill="#fedcb3" stroke="#fedcb3" stroke-width="1.51"/><path d="M-164,44L-265,489L-156,265Z" fill="#feac8e" stroke="#feac8e" stroke-width="1.51"/><path d="M-218,-120L-265,489L-164,44Z" fill="#ffc49d" stroke="#ffc49d" stroke-width="1.51"/><path d="M-265,489L-171,364L-156,265Z" fill="#f6997a" stroke="#f6997a" stroke-width="1.51"/></svg>