<svg xmlns="http://www.w3.org/2000/svg" width="640" height="320"><path d="M-180,-233L-51,-227L408,-223Z" fill="#aa7d3c" stroke="#aa7d3c" stroke-width="1.51"/><path d="M-51,-227L87,-209L408,-223Z" fill="#b88e56" stroke="#b88e56" stroke-width="1.51"/><path d="M375,530L236,562L524,531Z" fill="#79a49c" stroke="#79a49c" stroke-width="1.51"/><path d="M-180,-233L408,-223L560,-224Z" fill="#bc9770" stroke="#bc9770" stroke-width="1.51"/><path d="M677,262L688,411L821,238Z" fill="#65ada4" stroke="#65ada4" stroke-width="1.51"/><path d="M560,-224L707,-199L835,-217Z" fill="#706e4a" stroke="#706e4a" stroke-width="1.51"/><path d="M821,238L688,411L851,406Z" fill="#46978d" stroke="#46978d" stroke-width="1.51"/><path d="M688,411L666,519L851,406Z" fill="#28877f" stroke="#28877f" stroke-width="1.51"/><path d="M666,519L524,531L853,563Z" fill="#1e7971" stroke="#1e7971" stroke-width="1.51"/><path d="M524,531L236,562L853,563Z" fill="#4e9288" stroke="#4e9288" stroke-width="1.51"/><path d="M851,406L666,519L853,563Z" fill="#0d6e66" stroke="#0d6e66" stroke-width="1.51"/><path d="M835,-217L707,-199L854,-63Z" fill="#6e6840" stroke="#6e6840" stroke-width="1.51"/><path d="M671,-68L705,88L854,-63Z" fill="#8ea17c" stroke="#8ea17c" stroke-width="1.51"/><path d="M851,406L853,563L867,85Z" fill="#418a7f" stroke="#418a7f" stroke-width="1.51"/><path d="M854,-63L705,88L867,85Z" fill="#879d81" stroke="#879d81" stroke-width="1.51"/><path d="M705,88L821,238L867,85Z" fill="#88aba1" stroke="#88aba1" stroke-width="1.51"/><path d="M821,238L851,406L867,85Z" fill="#6d9d95" stroke="#6d9d95" stroke-width="1.51"/><path d="M707,-199L671,-68L854,-63Z" fill="#848054" stroke="#848054" stroke-width="1.51"/><path d="M87,-209L262,-196L408,-223Z" fill="#c29a70" stroke="#c29a70" stroke-width="1.51"/><path d="M705,88L677,262L821,238Z" fill="#88b8b2" stroke="#88b8b2" stroke-width="1.51"/><path d="M560,-224L572,-66L671,-68Z" fill="#a19c6e" stroke="#a19c6e" stroke-width="1.51"/><path d="M677,262L522,393L688,411Z" fill="#66b9ae" stroke="#66b9ae" stroke-width="1.51"/><path d="M671,-68L572,-66L705,88Z" fill="#a0b58f" stroke="#a0b58f" stroke-width="1.51"/><path d="M572,-66L538,112L705,88Z" fill="#b1cbaf" stroke="#b1cbaf" stroke-width="1.51"/><path d="M538,112L677,262L705,88Z" fill="#a6cfc8" stroke="#a6cfc8" stroke-width="1.51"/><path d="M560,-224L671,-68L707,-199Z" fill="#8a865d" stroke="#8a865d" stroke-width="1.51"/><path d="M523,261L522,393L677,262Z" fill="#8ad0c5" stroke="#8ad0c5" stroke-width="1.51"/><path d="M538,112L523,261L677,262Z" fill="#aadad2" stroke="#aadad2" stroke-width="1.51"/><path d="M522,393L666,519L688,411Z" fill="#45a097" stroke="#45a097" stroke-width="1.51"/><path d="M522,393L524,531L666,519Z" fill="#4ea197" stroke="#4ea197" stroke-width="1.51"/><path d="M368,-56L378,100L538,112Z" fill="#e1e6ce" stroke="#e1e6ce" stroke-width="1.51"/><path d="M368,-56L538,112L572,-66Z" fill="#cbd3b0" stroke="#cbd3b0" stroke-width="1.51"/><path d="M560,-224L408,-223L572,-66Z" fill="#aa9b72" stroke="#aa9b72" stroke-width="1.51"/><path d="M408,-223L368,-56L572,-66Z" fill="#c9b286" stroke="#c9b286" stroke-width="1.51"/><path d="M522,393L424,414L524,531Z" fill="#70b5ad" stroke="#70b5ad" stroke-width="1.51"/><path d="M368,216L523,261L538,112Z" fill="#cbe9e4" stroke="#cbe9e4" stroke-width="1.51"/><path d="M424,414L522,393L523,261Z" fill="#90d0c7" stroke="#90d0c7" stroke-width="1.51"/><path d="M378,100L368,216L538,112Z" fill="#e1efe9" stroke="#e1efe9" stroke-width="1.51"/><path d="M368,216L424,414L523,261Z" fill="#b6e3db" stroke="#b6e3db" stroke-width="1.51"/><path d="M424,414L375,530L524,531Z" fill="#75aea7" stroke="#75aea7" stroke-width="1.51"/><path d="M262,-196L368,-56L408,-223Z" fill="#ceab85" stroke="#ceab85" stroke-width="1.51"/><path d="M258,368L375,530L424,414Z" fill="#93c2bd" stroke="#93c2bd" stroke-width="1.51"/><path d="M368,216L258,368L424,414Z" fill="#bae1da" stroke="#bae1da" stroke-width="1.51"/><path d="M262,-196L257,-71L368,-56Z" fill="#e1b98c" stroke="#e1b98c" stroke-width="1.51"/><path d="M368,-56L237,101L378,100Z" fill="#f2e9d3" stroke="#f2e9d3" stroke-width="1.51"/><path d="M238,232L258,368L368,216Z" fill="#d7eae2" stroke="#d7eae2" stroke-width="1.51"/><path d="M237,101L238,232L368,216Z" fill="#f0f2eb" stroke="#f0f2eb" stroke-width="1.51"/><path d="M257,-71L237,101L368,-56Z" fill="#eddcb6" stroke="#eddcb6" stroke-width="1.51"/><path d="M258,368L236,562L375,530Z" fill="#90b4aa" stroke="#90b4aa" stroke-width="1.51"/><path d="M237,101L368,216L378,100Z" fill="#f4f3ee" stroke="#f4f3ee" stroke-width="1.51"/><path d="M82,509L-54,552L236,562Z" fill="#808f6b" stroke="#808f6b" stroke-width="1.51"/><path d="M92,-89L82,94L237,101Z" fill="#edd6a3" stroke="#edd6a3" stroke-width="1.51"/><path d="M237,101L109,247L238,232Z" fill="#edebd7" stroke="#edebd7" stroke-width="1.51"/><path d="M92,-89L237,101L257,-71Z" fill="#ebd49e" stroke="#ebd49e" stroke-width="1.51"/><path d="M82,509L236,562L258,368Z" fill="#93b098" stroke="#93b098" stroke-width="1.51"/><path d="M94,374L82,509L258,368Z" fill="#a0bb9c" stroke="#a0bb9c" stroke-width="1.51"/><path d="M238,232L109,247L258,368Z" fill="#d4e4ce" stroke="#d4e4ce" stroke-width="1.51"/><path d="M109,247L94,374L258,368Z" fill="#c1d5b7" stroke="#c1d5b7" stroke-width="1.51"/><path d="M92,-89L257,-71L262,-196Z" fill="#dbb177" stroke="#dbb177" stroke-width="1.51"/><path d="M87,-209L92,-89L262,-196Z" fill="#c89b5e" stroke="#c89b5e" stroke-width="1.51"/><path d="M82,94L109,247L237,101Z" fill="#f2e4c7" stroke="#f2e4c7" stroke-width="1.51"/><path d="M-77,-47L-70,91L82,94Z" fill="#dcb475" stroke="#dcb475" stroke-width="1.51"/><path d="M-77,-47L82,94L92,-89Z" fill="#dab66f" stroke="#dab66f" stroke-width="1.51"/><path d="M87,-209L-51,-227L92,-89Z" fill="#b9853d" stroke="#b9853d" stroke-width="1.51"/><path d="M-31,393L82,509L94,374Z" fill="#97a67e" stroke="#97a67e" stroke-width="1.51"/><path d="M-57,237L-31,393L94,374Z" fill="#b4b386" stroke="#b4b386" stroke-width="1.51"/><path d="M-57,237L94,374L109,247Z" fill="#c8c79f" stroke="#c8c79f" stroke-width="1.51"/><path d="M82,94L-57,237L109,247Z" fill="#e2cfaa" stroke="#e2cfaa" stroke-width="1.51"/><path d="M-70,91L-57,237L82,94Z" fill="#e3bf93" stroke="#e3bf93" stroke-width="1.51"/><path d="M-51,-227L-77,-47L92,-89Z" fill="#c08535" stroke="#c08535" stroke-width="1.51"/><path d="M-31,393L-54,552L82,509Z" fill="#85895e" stroke="#85895e" stroke-width="1.51"/><path d="M-70,91L-181,250L-57,237Z" fill="#ccaa83" stroke="#ccaa83" stroke-width="1.51"/><path d="M-181,250L-188,374L-57,237Z" fill="#ac9972" stroke="#ac9972" stroke-width="1.51"/><path d="M-188,374L-235,512L-54,552Z" fill="#6d6843" stroke="#6d6843" stroke-width="1.51"/><path d="M-212,-93L-77,-47L-51,-227Z" fill="#ac6e20" stroke="#ac6e20" stroke-width="1.51"/><path d="M-180,-233L-212,-93L-51,-227Z" fill="#935710" stroke="#935710" stroke-width="1.51"/><path d="M-188,374L-54,552L-31,393Z" fill="#838057" stroke="#838057" stroke-width="1.51"/><path d="M-57,237L-188,374L-31,393Z" fill="#a69d71" stroke="#a69d71" stroke-width="1.51"/><path d="M-77,-47L-185,64L-70,91Z" fill="#ca9d60" stroke="#ca9d60" stroke-width="1.51"/><path d="M-185,64L-181,250L-70,91Z" fill="#c9a179" stroke="#c9a179" stroke-width="1.51"/><path d="M-212,-93L-185,64L-77,-47Z" fill="#b68742" stroke="#b68742" stroke-width="1.51"/><path d="M-212,-93L-235,512L-185,64Z" fill="#b9977a" stroke="#b9977a" stroke-width="1.51"/><path d="M-185,64L-235,512L-181,250Z" fill="#a19170" stroke="#a19170" stroke-width="1.51"/><path d="M-235,512L-188,374L-181,250Z" fill="#7e7c5a" stroke="#7e7c5a" stroke-width="1.51"/></svg>