<svg xmlns="http://www.w3.org/2000/svg" width="640" height="320"><path d="M-167,-242L-49,-233L414,-227Z" fill="#d6f0ec" stroke="#d6f0ec" stroke-width="1.51"/><path d="M-49,-233L83,-206L414,-227Z" fill="#c6eae4" stroke="#c6eae4" stroke-width="1.51"/><path d="M-167,-242L414,-227L567,-228Z" fill="#b4e1d5" stroke="#b4e1d5" stroke-width="1.51"/><path d="M567,-228L713,-191L831,-217Z" fill="#87b894" stroke="#87b894" stroke-width="1.51"/><path d="M809,239L684,424L854,417Z" fill="#187e3d" stroke="#187e3d" stroke-width="1.51"/><path d="M831,-217L713,-191L858,-61Z" fill="#7aaa89" stroke="#7aaa89" stroke-width="1.51"/><path d="M651,512L514,530L858,578Z" fill="#0d6e30" stroke="#0d6e30" stroke-width="1.51"/><path d="M514,530L232,576L858,578Z" fill="#1c7941" stroke="#1c7941" stroke-width="1.51"/><path d="M854,417L684,424L858,578Z" fill="#046c2d" stroke="#046c2d" stroke-width="1.51"/><path d="M684,424L651,512L858,578Z" fill="#056f2e" stroke="#056f2e" stroke-width="1.51"/><path d="M858,-61L710,90L878,86Z" fill="#579b75" stroke="#579b75" stroke-width="1.51"/><path d="M710,90L809,239L878,86Z" fill="#419468" stroke="#419468" stroke-width="1.51"/><path d="M809,239L854,417L878,86Z" fill="#298450" stroke="#298450" stroke-width="1.51"/><path d="M854,417L858,578L878,86Z" fill="#167238" stroke="#167238" stroke-width="1.51"/><path d="M668,276L684,424L809,239Z" fill="#258c4c" stroke="#258c4c" stroke-width="1.51"/><path d="M713,-191L660,-69L858,-61Z" fill="#79b08a" stroke="#79b08a" stroke-width="1.51"/><path d="M660,-69L710,90L858,-61Z" fill="#69aa81" stroke="#69aa81" stroke-width="1.51"/><path d="M365,527L232,576L514,530Z" fill="#338a5b" stroke="#338a5b" stroke-width="1.51"/><path d="M710,90L668,276L809,239Z" fill="#389762" stroke="#389762" stroke-width="1.51"/><path d="M567,-228L586,-67L660,-69Z" fill="#86c09a" stroke="#86c09a" stroke-width="1.51"/><path d="M660,-69L586,-67L710,90Z" fill="#70b38a" stroke="#70b38a" stroke-width="1.51"/><path d="M586,-67L534,126L710,90Z" fill="#64b286" stroke="#64b286" stroke-width="1.51"/><path d="M534,126L668,276L710,90Z" fill="#46a471" stroke="#46a471" stroke-width="1.51"/><path d="M567,-228L660,-69L713,-191Z" fill="#87bd98" stroke="#87bd98" stroke-width="1.51"/><path d="M534,126L512,274L668,276Z" fill="#41a66f" stroke="#41a66f" stroke-width="1.51"/><path d="M512,274L511,398L668,276Z" fill="#339c5d" stroke="#339c5d" stroke-width="1.51"/><path d="M668,276L511,398L684,424Z" fill="#268e49" stroke="#268e49" stroke-width="1.51"/><path d="M511,398L651,512L684,424Z" fill="#1c833f" stroke="#1c833f" stroke-width="1.51"/><path d="M83,-206L271,-186L414,-227Z" fill="#b5e1d6" stroke="#b5e1d6" stroke-width="1.51"/><path d="M511,398L514,530L651,512Z" fill="#1e8544" stroke="#1e8544" stroke-width="1.51"/><path d="M354,-51L370,107L534,126Z" fill="#73c5a5" stroke="#73c5a5" stroke-width="1.51"/><path d="M354,-51L534,126L586,-67Z" fill="#79c5a1" stroke="#79c5a1" stroke-width="1.51"/><path d="M567,-228L414,-227L586,-67Z" fill="#93ccac" stroke="#93ccac" stroke-width="1.51"/><path d="M414,-227L354,-51L586,-67Z" fill="#93d0b4" stroke="#93d0b4" stroke-width="1.51"/><path d="M439,428L511,398L512,274Z" fill="#349d5e" stroke="#349d5e" stroke-width="1.51"/><path d="M511,398L439,428L514,530Z" fill="#2a9153" stroke="#2a9153" stroke-width="1.51"/><path d="M354,207L512,274L534,126Z" fill="#4eb485" stroke="#4eb485" stroke-width="1.51"/><path d="M370,107L354,207L534,126Z" fill="#5ebd96" stroke="#5ebd96" stroke-width="1.51"/><path d="M354,207L439,428L512,274Z" fill="#42ab75" stroke="#42ab75" stroke-width="1.51"/><path d="M439,428L365,527L514,530Z" fill="#2c8f55" stroke="#2c8f55" stroke-width="1.51"/><path d="M271,-186L354,-51L414,-227Z" fill="#a3d9c8" stroke="#a3d9c8" stroke-width="1.51"/><path d="M264,360L365,527L439,428Z" fill="#3e9d68" stroke="#3e9d68" stroke-width="1.51"/><path d="M354,207L264,360L439,428Z" fill="#4aac7b" stroke="#4aac7b" stroke-width="1.51"/><path d="M234,231L264,360L354,207Z" fill="#5cbb93" stroke="#5cbb93" stroke-width="1.51"/><path d="M263,-74L233,110L354,-51Z" fill="#93d4c1" stroke="#93d4c1" stroke-width="1.51"/><path d="M271,-186L263,-74L354,-51Z" fill="#a4dbcb" stroke="#a4dbcb" stroke-width="1.51"/><path d="M264,360L232,576L365,527Z" fill="#449b6b" stroke="#449b6b" stroke-width="1.51"/><path d="M354,-51L233,110L370,107Z" fill="#7fccb5" stroke="#7fccb5" stroke-width="1.51"/><path d="M233,110L354,207L370,107Z" fill="#6bc4a7" stroke="#6bc4a7" stroke-width="1.51"/><path d="M233,110L234,231L354,207Z" fill="#6bc4a5" stroke="#6bc4a5" stroke-width="1.51"/><path d="M91,-100L75,99L233,110Z" fill="#a2dcce" stroke="#a2dcce" stroke-width="1.51"/><path d="M91,-100L233,110L263,-74Z" fill="#a5dccf" stroke="#a5dccf" stroke-width="1.51"/><path d="M75,496L232,576L264,360Z" fill="#56a378" stroke="#56a378" stroke-width="1.51"/><path d="M94,369L75,496L264,360Z" fill="#66b085" stroke="#66b085" stroke-width="1.51"/><path d="M234,231L117,253L264,360Z" fill="#69bf98" stroke="#69bf98" stroke-width="1.51"/><path d="M91,-100L263,-74L271,-186Z" fill="#b3e1d7" stroke="#b3e1d7" stroke-width="1.51"/><path d="M83,-206L91,-100L271,-186Z" fill="#c2e8e2" stroke="#c2e8e2" stroke-width="1.51"/><path d="M117,253L94,369L264,360Z" fill="#6cbb93" stroke="#6cbb93" stroke-width="1.51"/><path d="M75,496L-54,561L232,576Z" fill="#639e7a" stroke="#639e7a" stroke-width="1.51"/><path d="M75,99L117,253L233,110Z" fill="#87d0ba" stroke="#87d0ba" stroke-width="1.51"/><path d="M233,110L117,253L234,231Z" fill="#76c8ab" stroke="#76c8ab" stroke-width="1.51"/><path d="M-88,-38L75,99L91,-100Z" fill="#c0e7df" stroke="#c0e7df" stroke-width="1.51"/><path d="M-18,397L75,496L94,369Z" fill="#75b48c" stroke="#75b48c" stroke-width="1.51"/><path d="M-58,239L-18,397L94,369Z" fill="#85c49f" stroke="#85c49f" stroke-width="1.51"/><path d="M-58,239L94,369L117,253Z" fill="#84c9a7" stroke="#84c9a7" stroke-width="1.51"/><path d="M75,99L-58,239L117,253Z" fill="#92d2ba" stroke="#92d2ba" stroke-width="1.51"/><path d="M-88,-38L-77,94L75,99Z" fill="#b6e3da" stroke="#b6e3da" stroke-width="1.51"/><path d="M-77,94L-58,239L75,99Z" fill="#a2daca" stroke="#a2daca" stroke-width="1.51"/><path d="M83,-206L-49,-233L91,-100Z" fill="#d5efed" stroke="#d5efed" stroke-width="1.51"/><path d="M-49,-233L-88,-38L91,-100Z" fill="#d6f0ed" stroke="#d6f0ed" stroke-width="1.51"/><path d="M-18,397L-54,561L75,496Z" fill="#75ad88" stroke="#75ad88" stroke-width="1.51"/><path d="M-168,257L-179,369L-58,239Z" fill="#97cfb2" stroke="#97cfb2" stroke-width="1.51"/><path d="M-215,-106L-88,-38L-49,-233Z" fill="#dff3f3" stroke="#dff3f3" stroke-width="1.51"/><path d="M-167,-242L-215,-106L-49,-233Z" fill="#e8f6f9" stroke="#e8f6f9" stroke-width="1.51"/><path d="M-179,369L-54,561L-18,397Z" fill="#81b692" stroke="#81b692" stroke-width="1.51"/><path d="M-58,239L-179,369L-18,397Z" fill="#8dc6a5" stroke="#8dc6a5" stroke-width="1.51"/><path d="M-88,-38L-175,54L-77,94Z" fill="#c0e7e1" stroke="#c0e7e1" stroke-width="1.51"/><path d="M-77,94L-168,257L-58,239Z" fill="#a0d7c4" stroke="#a0d7c4" stroke-width="1.51"/><path d="M-179,369L-250,500L-54,561Z" fill="#83b391" stroke="#83b391" stroke-width="1.51"/><path d="M-175,54L-168,257L-77,94Z" fill="#aeded2" stroke="#aeded2" stroke-width="1.51"/><path d="M-215,-106L-175,54L-88,-38Z" fill="#d3eeeb" stroke="#d3eeeb" stroke-width="1.51"/><path d="M-175,54L-250,500L-168,257Z" fill="#9dd4b7" stroke="#9dd4b7" stroke-width="1.51"/><path d="M-215,-106L-250,500L-175,54Z" fill="#afdfd0" stroke="#afdfd0" stroke-width="1.51"/><path d="M-250,500L-179,369L-168,257Z" fill="#90c39f" stroke="#90c39f" stroke-width="1.51"/></svg>