<svg xmlns="http://www.w3.org/2000/svg" width="640" height="320"><path d="M-186,-229L-52,-224L404,-221Z" fill="#c75b4e" stroke="#c75b4e" stroke-width="1.51"/><path d="M89,-211L258,-201L404,-221Z" fill="#d9867d" stroke="#d9867d" stroke-width="1.51"/><path d="M-52,-224L89,-211L404,-221Z" fill="#d27365" stroke="#d27365" stroke-width="1.51"/><path d="M380,531L238,555L529,532Z" fill="#8aa0c7" stroke="#8aa0c7" stroke-width="1.51"/><path d="M-186,-229L404,-221L556,-222Z" fill="#d3847d" stroke="#d3847d" stroke-width="1.51"/><path d="M681,255L689,404L827,237Z" fill="#79a8d0" stroke="#79a8d0" stroke-width="1.51"/><path d="M556,-222L704,-203L838,-216Z" fill="#915d70" stroke="#915d70" stroke-width="1.51"/><path d="M827,237L689,404L849,401Z" fill="#5f94c5" stroke="#5f94c5" stroke-width="1.51"/><path d="M689,404L673,523L849,401Z" fill="#3a85bc" stroke="#3a85bc" stroke-width="1.51"/><path d="M838,-216L704,-203L851,-63Z" fill="#925772" stroke="#925772" stroke-width="1.51"/><path d="M704,-203L677,-67L851,-63Z" fill="#9f7082" stroke="#9f7082" stroke-width="1.51"/><path d="M677,-67L702,87L851,-63Z" fill="#a891a0" stroke="#a891a0" stroke-width="1.51"/><path d="M529,532L238,555L851,556Z" fill="#628dba" stroke="#628dba" stroke-width="1.51"/><path d="M673,523L529,532L851,556Z" fill="#3175af" stroke="#3175af" stroke-width="1.51"/><path d="M849,401L673,523L851,556Z" fill="#296eb1" stroke="#296eb1" stroke-width="1.51"/><path d="M851,-63L702,87L861,85Z" fill="#a093ad" stroke="#a093ad" stroke-width="1.51"/><path d="M702,87L827,237L861,85Z" fill="#9ba8cc" stroke="#9ba8cc" stroke-width="1.51"/><path d="M827,237L849,401L861,85Z" fill="#7f98bf" stroke="#7f98bf" stroke-width="1.51"/><path d="M849,401L851,556L861,85Z" fill="#5785b2" stroke="#5785b2" stroke-width="1.51"/><path d="M702,87L681,255L827,237Z" fill="#98b5d6" stroke="#98b5d6" stroke-width="1.51"/><path d="M556,-222L565,-66L677,-67Z" fill="#b98a8e" stroke="#b98a8e" stroke-width="1.51"/><path d="M528,254L528,391L681,255Z" fill="#9bc8e0" stroke="#9bc8e0" stroke-width="1.51"/><path d="M539,105L528,254L681,255Z" fill="#b6d4e7" stroke="#b6d4e7" stroke-width="1.51"/><path d="M681,255L528,391L689,404Z" fill="#78b2d5" stroke="#78b2d5" stroke-width="1.51"/><path d="M677,-67L565,-66L702,87Z" fill="#b7a5a8" stroke="#b7a5a8" stroke-width="1.51"/><path d="M565,-66L539,105L702,87Z" fill="#c2bfc3" stroke="#c2bfc3" stroke-width="1.51"/><path d="M539,105L681,255L702,87Z" fill="#b1cbdf" stroke="#b1cbdf" stroke-width="1.51"/><path d="M556,-222L677,-67L704,-203Z" fill="#a7747f" stroke="#a7747f" stroke-width="1.51"/><path d="M528,391L673,523L689,404Z" fill="#559ac8" stroke="#559ac8" stroke-width="1.51"/><path d="M528,391L529,532L673,523Z" fill="#619bc8" stroke="#619bc8" stroke-width="1.51"/><path d="M528,391L417,406L529,532Z" fill="#81b1d4" stroke="#81b1d4" stroke-width="1.51"/><path d="M374,-58L382,96L539,105Z" fill="#eadad3" stroke="#eadad3" stroke-width="1.51"/><path d="M374,221L528,254L539,105Z" fill="#d3e5ef" stroke="#d3e5ef" stroke-width="1.51"/><path d="M374,-58L539,105L565,-66Z" fill="#ddc2ba" stroke="#ddc2ba" stroke-width="1.51"/><path d="M556,-222L404,-221L565,-66Z" fill="#c68a8a" stroke="#c68a8a" stroke-width="1.51"/><path d="M404,-221L374,-58L565,-66Z" fill="#dca29a" stroke="#dca29a" stroke-width="1.51"/><path d="M417,406L528,391L528,254Z" fill="#a1cbe2" stroke="#a1cbe2" stroke-width="1.51"/><path d="M382,96L374,221L539,105Z" fill="#e7ecef" stroke="#e7ecef" stroke-width="1.51"/><path d="M374,221L417,406L528,254Z" fill="#c2ddec" stroke="#c2ddec" stroke-width="1.51"/><path d="M417,406L380,531L529,532Z" fill="#88abd2" stroke="#88abd2" stroke-width="1.51"/><path d="M258,-201L374,-58L404,-221Z" fill="#e39b93" stroke="#e39b93" stroke-width="1.51"/><path d="M254,372L380,531L417,406Z" fill="#9fc0db" stroke="#9fc0db" stroke-width="1.51"/><path d="M374,221L254,372L417,406Z" fill="#c4ddea" stroke="#c4ddea" stroke-width="1.51"/><path d="M239,233L254,372L374,221Z" fill="#dde6eb" stroke="#dde6eb" stroke-width="1.51"/><path d="M254,-70L239,97L374,-58Z" fill="#facdb9" stroke="#facdb9" stroke-width="1.51"/><path d="M258,-201L254,-70L374,-58Z" fill="#eea99a" stroke="#eea99a" stroke-width="1.51"/><path d="M374,-58L239,97L382,96Z" fill="#f9e0d4" stroke="#f9e0d4" stroke-width="1.51"/><path d="M85,515L-55,548L238,555Z" fill="#9d8093" stroke="#9d8093" stroke-width="1.51"/><path d="M239,97L239,233L374,221Z" fill="#f3f1ee" stroke="#f3f1ee" stroke-width="1.51"/><path d="M254,372L238,555L380,531Z" fill="#9fb1d0" stroke="#9fb1d0" stroke-width="1.51"/><path d="M239,97L374,221L382,96Z" fill="#f6f3f0" stroke="#f6f3f0" stroke-width="1.51"/><path d="M106,244L239,233L239,97Z" fill="#f5e5dc" stroke="#f5e5dc" stroke-width="1.51"/><path d="M85,92L106,244L239,97Z" fill="#fbd9ca" stroke="#fbd9ca" stroke-width="1.51"/><path d="M93,-83L85,92L239,97Z" fill="#fbc3a7" stroke="#fbc3a7" stroke-width="1.51"/><path d="M85,515L238,555L254,372Z" fill="#a6a7bd" stroke="#a6a7bd" stroke-width="1.51"/><path d="M94,377L85,515L254,372Z" fill="#b1adb7" stroke="#b1adb7" stroke-width="1.51"/><path d="M239,233L106,244L254,372Z" fill="#dedad8" stroke="#dedad8" stroke-width="1.51"/><path d="M106,244L94,377L254,372Z" fill="#d0c7c6" stroke="#d0c7c6" stroke-width="1.51"/><path d="M93,-83L239,97L254,-70Z" fill="#fabfa3" stroke="#fabfa3" stroke-width="1.51"/><path d="M93,-83L254,-70L258,-201Z" fill="#ec9c87" stroke="#ec9c87" stroke-width="1.51"/><path d="M89,-211L93,-83L258,-201Z" fill="#e0816d" stroke="#e0816d" stroke-width="1.51"/><path d="M-72,-52L-66,89L85,92Z" fill="#ee9c83" stroke="#ee9c83" stroke-width="1.51"/><path d="M-66,89L-57,237L85,92Z" fill="#f1b1a0" stroke="#f1b1a0" stroke-width="1.51"/><path d="M-72,-52L85,92L93,-83Z" fill="#f09a7a" stroke="#f09a7a" stroke-width="1.51"/><path d="M89,-211L-52,-224L93,-83Z" fill="#d56452" stroke="#d56452" stroke-width="1.51"/><path d="M-37,391L85,515L94,377Z" fill="#ae959c" stroke="#ae959c" stroke-width="1.51"/><path d="M-57,237L-37,391L94,377Z" fill="#c9a19d" stroke="#c9a19d" stroke-width="1.51"/><path d="M-57,237L94,377L106,244Z" fill="#dbb6ad" stroke="#dbb6ad" stroke-width="1.51"/><path d="M85,92L-57,237L106,244Z" fill="#f1c1b2" stroke="#f1c1b2" stroke-width="1.51"/><path d="M-37,391L-55,548L85,515Z" fill="#a1788a" stroke="#a1788a" stroke-width="1.51"/><path d="M-52,-224L-72,-52L93,-83Z" fill="#d86651" stroke="#d86651" stroke-width="1.51"/><path d="M-186,-229L-210,-86L-72,-52Z" fill="#c23e3a" stroke="#c23e3a" stroke-width="1.51"/><path d="M-72,-52L-190,69L-66,89Z" fill="#e28470" stroke="#e28470" stroke-width="1.51"/><path d="M-66,89L-187,246L-57,237Z" fill="#e19b93" stroke="#e19b93" stroke-width="1.51"/><path d="M-187,246L-192,377L-57,237Z" fill="#c78687" stroke="#c78687" stroke-width="1.51"/><path d="M-192,377L-228,517L-55,548Z" fill="#92556e" stroke="#92556e" stroke-width="1.51"/><path d="M-186,-229L-72,-52L-52,-224Z" fill="#c13b39" stroke="#c13b39" stroke-width="1.51"/><path d="M-192,377L-55,548L-37,391Z" fill="#a06f7d" stroke="#a06f7d" stroke-width="1.51"/><path d="M-57,237L-192,377L-37,391Z" fill="#bf8a8b" stroke="#bf8a8b" stroke-width="1.51"/><path d="M-190,69L-187,246L-66,89Z" fill="#e18f86" stroke="#e18f86" stroke-width="1.51"/><path d="M-210,-86L-190,69L-72,-52Z" fill="#d56654" stroke="#d56654" stroke-width="1.51"/><path d="M-190,69L-228,517L-187,246Z" fill="#b97e82" stroke="#b97e82" stroke-width="1.51"/><path d="M-228,517L-192,377L-187,246Z" fill="#9b6a77" stroke="#9b6a77" stroke-width="1.51"/><path d="M-210,-86L-228,517L-190,69Z" fill="#cc8986" stroke="#cc8986" stroke-width="1.51"/></svg>