<svg xmlns="http://www.w3.org/2000/svg" width="1440" height="480"><path d="M1710,-210L1530,-210L1710,-30Z" fill="#797979" stroke="#797979" stroke-width="1.51"/><path d="M1530,-210L1530,-30L1710,-30Z" fill="#797979" stroke="#797979" stroke-width="1.51"/><path d="M1530,330L1710,330L1710,150Z" fill="#4f4f4f" stroke="#4f4f4f" stroke-width="1.51"/><path d="M1530,150L1530,330L1710,150Z" fill="#5a5a5a" stroke="#5a5a5a" stroke-width="1.51"/><path d="M1710,-30L1530,-30L1710,150Z" fill="#6b6b6b" stroke="#6b6b6b" stroke-width="1.51"/><path d="M1530,-30L1530,150L1710,150Z" fill="#696969" stroke="#696969" stroke-width="1.51"/><path d="M1710,330L1530,330L1710,510Z" fill="#414141" stroke="#414141" stroke-width="1.51"/><path d="M1530,330L1530,510L1710,510Z" fill="#3e3e3e" stroke="#3e3e3e" stroke-width="1.51"/><path d="M1710,510L1530,510L1710,690Z" fill="#2a2a2a" stroke="#2a2a2a" stroke-width="1.51"/><path d="M1530,510L1530,690L1710,690Z" fill="#242424" stroke="#242424" stroke-width="1.51"/><path d="M1530,-210L1350,-210L1530,-30Z" fill="#878787" stroke="#878787" stroke-width="1.51"/><path d="M1350,-210L1350,-30L1530,-30Z" fill="#888888" stroke="#888888" stroke-width="1.51"/><path d="M1530,-30L1350,-30L1530,150Z" fill="#787878" stroke="#787878" stroke-width="1.51"/><path d="M1350,-30L1350,150L1530,150Z" fill="#787878" stroke="#787878" stroke-width="1.51"/><path d="M1350,510L1530,510L1530,330Z" fill="#464646" stroke="#464646" stroke-width="1.51"/><path d="M1350,330L1350,510L1530,330Z" fill="#535353" stroke="#535353" stroke-width="1.51"/><path d="M1530,150L1350,150L1530,330Z" fill="#646464" stroke="#646464" stroke-width="1.51"/><path d="M1350,150L1350,330L1530,330Z" fill="#616161" stroke="#616161" stroke-width="1.51"/><path d="M1530,510L1350,510L1530,690Z" fill="#353535" stroke="#353535" stroke-width="1.51"/><path d="M1350,510L1350,690L1530,690Z" fill="#313131" stroke="#313131" stroke-width="1.51"/><path d="M1350,-210L1170,-210L1350,-30Z" fill="#999999" stroke="#999999" stroke-width="1.51"/><path d="M1170,-210L1170,-30L1350,-30Z" fill="#999999" stroke="#999999" stroke-width="1.51"/><path d="M1350,-30L1170,-30L1350,150Z" fill="#8a8a8a" stroke="#8a8a8a" stroke-width="1.51"/><path d="M1170,-30L1170,150L1350,150Z" fill="#898989" stroke="#898989" stroke-width="1.51"/><path d="M1350,150L1170,150L1350,330Z" fill="#757575" stroke="#757575" stroke-width="1.51"/><path d="M1170,150L1170,330L1350,330Z" fill="#717171" stroke="#717171" stroke-width="1.51"/><path d="M1350,330L1170,330L1350,510Z" fill="#5e5e5e" stroke="#5e5e5e" stroke-width="1.51"/><path d="M1170,330L1170,510L1350,510Z" fill="#5b5b5b" stroke="#5b5b5b" stroke-width="1.51"/><path d="M1350,510L1170,510L1350,690Z" fill="#454545" stroke="#454545" stroke-width="1.51"/><path d="M1170,510L1170,690L1350,690Z" fill="#3f3f3f" stroke="#3f3f3f" stroke-width="1.51"/><path d="M1170,-210L990,-210L1170,-30Z" fill="#a6a6a6" stroke="#a6a6a6" stroke-width="1.51"/><path d="M990,-210L990,-30L1170,-30Z" fill="#a6a6a6" stroke="#a6a6a6" stroke-width="1.51"/><path d="M1170,-30L990,-30L1170,150Z" fill="#969696" stroke="#969696" stroke-width="1.51"/><path d="M990,-30L990,150L1170,150Z" fill="#959595" stroke="#959595" stroke-width="1.51"/><path d="M990,510L1170,510L1170,330Z" fill="#626262" stroke="#626262" stroke-width="1.51"/><path d="M990,330L990,510L1170,330Z" fill="#6d6d6d" stroke="#6d6d6d" stroke-width="1.51"/><path d="M1170,150L990,150L1170,330Z" fill="#818181" stroke="#818181" stroke-width="1.51"/><path d="M990,150L990,330L1170,330Z" fill="#7d7d7d" stroke="#7d7d7d" stroke-width="1.51"/><path d="M1170,510L990,510L1170,690Z" fill="#505050" stroke="#505050" stroke-width="1.51"/><path d="M990,510L990,690L1170,690Z" fill="#4a4a4a" stroke="#4a4a4a" stroke-width="1.51"/><path d="M990,-30L810,-30L990,150Z" fill="#a3a3a3" stroke="#a3a3a3" stroke-width="1.51"/><path d="M810,-30L810,150L990,150Z" fill="#a0a0a0" stroke="#a0a0a0" stroke-width="1.51"/><path d="M990,150L810,150L990,330Z" fill="#8d8d8d" stroke="#8d8d8d" stroke-width="1.51"/><path d="M810,150L810,330L990,330Z" fill="#888888" stroke="#888888" stroke-width="1.51"/><path d="M810,690L990,690L990,510Z" fill="#515151" stroke="#515151" stroke-width="1.51"/><path d="M810,510L810,690L990,510Z" fill="#5e5e5e" stroke="#5e5e5e" stroke-width="1.51"/><path d="M990,330L810,330L990,510Z" fill="#757575" stroke="#757575" stroke-width="1.51"/><path d="M810,330L810,510L990,510Z" fill="#717171" stroke="#717171" stroke-width="1.51"/><path d="M810,-30L990,-30L990,-210Z" fill="#aeaeae" stroke="#aeaeae" stroke-width="1.51"/><path d="M810,-210L810,-30L990,-210Z" fill="#b6b6b6" stroke="#b6b6b6" stroke-width="1.51"/><path d="M810,-30L630,-30L810,150Z" fill="#afafaf" stroke="#afafaf" stroke-width="1.51"/><path d="M630,-30L630,150L810,150Z" fill="#adadad" stroke="#adadad" stroke-width="1.51"/><path d="M810,150L630,150L810,330Z" fill="#989898" stroke="#989898" stroke-width="1.51"/><path d="M630,150L630,330L810,330Z" fill="#949494" stroke="#949494" stroke-width="1.51"/><path d="M810,330L630,330L810,510Z" fill="#808080" stroke="#808080" stroke-width="1.51"/><path d="M630,330L630,510L810,510Z" fill="#7c7c7c" stroke="#7c7c7c" stroke-width="1.51"/><path d="M810,510L630,510L810,690Z" fill="#666666" stroke="#666666" stroke-width="1.51"/><path d="M630,510L630,690L810,690Z" fill="#5f5f5f" stroke="#5f5f5f" stroke-width="1.51"/><path d="M630,-30L810,-30L810,-210Z" fill="#bababa" stroke="#bababa" stroke-width="1.51"/><path d="M630,-210L630,-30L810,-210Z" fill="#c3c3c3" stroke="#c3c3c3" stroke-width="1.51"/><path d="M450,510L630,510L630,330Z" fill="#858585" stroke="#858585" stroke-width="1.51"/><path d="M450,330L450,510L630,330Z" fill="#919191" stroke="#919191" stroke-width="1.51"/><path d="M630,-210L450,-210L630,-30Z" fill="#cbcbcb" stroke="#cbcbcb" stroke-width="1.51"/><path d="M450,-210L450,-30L630,-30Z" fill="#cbcbcb" stroke="#cbcbcb" stroke-width="1.51"/><path d="M450,330L630,330L630,150Z" fill="#9c9c9c" stroke="#9c9c9c" stroke-width="1.51"/><path d="M450,150L450,330L630,150Z" fill="#a9a9a9" stroke="#a9a9a9" stroke-width="1.51"/><path d="M630,-30L450,-30L630,150Z" fill="#bbbbbb" stroke="#bbbbbb" stroke-width="1.51"/><path d="M450,-30L450,150L630,150Z" fill="#bababa" stroke="#bababa" stroke-width="1.51"/><path d="M630,510L450,510L630,690Z" fill="#727272" stroke="#727272" stroke-width="1.51"/><path d="M450,510L450,690L630,690Z" fill="#6b6b6b" stroke="#6b6b6b" stroke-width="1.51"/><path d="M450,-210L270,-210L450,-30Z" fill="#d8d8d8" stroke="#d8d8d8" stroke-width="1.51"/><path d="M270,-210L270,-30L450,-30Z" fill="#d6d6d6" stroke="#d6d6d6" stroke-width="1.51"/><path d="M450,-30L270,-30L450,150Z" fill="#c7c7c7" stroke="#c7c7c7" stroke-width="1.51"/><path d="M270,-30L270,150L450,150Z" fill="#c4c4c4" stroke="#c4c4c4" stroke-width="1.51"/><path d="M450,150L270,150L450,330Z" fill="#b1b1b1" stroke="#b1b1b1" stroke-width="1.51"/><path d="M270,150L270,330L450,330Z" fill="#ababab" stroke="#ababab" stroke-width="1.51"/><path d="M270,690L450,690L450,510Z" fill="#727272" stroke="#727272" stroke-width="1.51"/><path d="M270,510L270,690L450,510Z" fill="#7f7f7f" stroke="#7f7f7f" stroke-width="1.51"/><path d="M450,330L270,330L450,510Z" fill="#989898" stroke="#989898" stroke-width="1.51"/><path d="M270,330L270,510L450,510Z" fill="#939393" stroke="#939393" stroke-width="1.51"/><path d="M90,-30L270,-30L270,-210Z" fill="#dcdcdc" stroke="#dcdcdc" stroke-width="1.51"/><path d="M90,-210L90,-30L270,-210Z" fill="#e4e4e4" stroke="#e4e4e4" stroke-width="1.51"/><path d="M90,690L270,690L270,510Z" fill="#7a7a7a" stroke="#7a7a7a" stroke-width="1.51"/><path d="M90,510L90,690L270,510Z" fill="#888888" stroke="#888888" stroke-width="1.51"/><path d="M270,330L90,330L270,510Z" fill="#a1a1a1" stroke="#a1a1a1" stroke-width="1.51"/><path d="M90,330L90,510L270,510Z" fill="#9c9c9c" stroke="#9c9c9c" stroke-width="1.51"/><path d="M270,-30L90,-30L270,150Z" fill="#d1d1d1" stroke="#d1d1d1" stroke-width="1.51"/><path d="M90,-30L90,150L270,150Z" fill="#cecece" stroke="#cecece" stroke-width="1.51"/><path d="M90,330L270,330L270,150Z" fill="#b1b1b1" stroke="#b1b1b1" stroke-width="1.51"/><path d="M90,150L90,330L270,150Z" fill="#bdbdbd" stroke="#bdbdbd" stroke-width="1.51"/><path d="M90,-210L-90,-210L90,-30Z" fill="#e9e9e9" stroke="#e9e9e9" stroke-width="1.51"/><path d="M-90,-210L-90,-30L90,-30Z" fill="#e7e7e7" stroke="#e7e7e7" stroke-width="1.51"/><path d="M90,-30L-90,-30L90,150Z" fill="#d9d9d9" stroke="#d9d9d9" stroke-width="1.51"/><path d="M-90,-30L-90,150L90,150Z" fill="#d5d5d5" stroke="#d5d5d5" stroke-width="1.51"/><path d="M-90,510L90,510L90,330Z" fill="#a0a0a0" stroke="#a0a0a0" stroke-width="1.51"/><path d="M-90,330L-90,510L90,330Z" fill="#ababab" stroke="#ababab" stroke-width="1.51"/><path d="M90,150L-90,150L90,330Z" fill="#c2c2c2" stroke="#c2c2c2" stroke-width="1.51"/><path d="M-90,150L-90,330L90,330Z" fill="#bbbbbb" stroke="#bbbbbb" stroke-width="1.51"/><path d="M90,510L-90,510L90,690Z" fill="#8d8d8d" stroke="#8d8d8d" stroke-width="1.51"/><path d="M-90,510L-90,690L90,690Z" fill="#848484" stroke="#848484" stroke-width="1.51"/><path d="M-90,-30L-270,-30L-90,150Z" fill="#dfdfdf" stroke="#dfdfdf" stroke-width="1.51"/><path d="M-270,-30L-270,150L-90,150Z" fill="#dbdbdb" stroke="#dbdbdb" stroke-width="1.51"/><path d="M-90,150L-270,150L-90,330Z" fill="#c8c8c8" stroke="#c8c8c8" stroke-width="1.51"/><path d="M-270,150L-270,330L-90,330Z" fill="#c1c1c1" stroke="#c1c1c1" stroke-width="1.51"/><path d="M-270,690L-90,690L-90,510Z" fill="#878787" stroke="#878787" stroke-width="1.51"/><path d="M-270,510L-270,690L-90,510Z" fill="#949494" stroke="#949494" stroke-width="1.51"/><path d="M-90,330L-270,330L-90,510Z" fill="#afafaf" stroke="#afafaf" stroke-width="1.51"/><path d="M-270,330L-270,510L-90,510Z" fill="#a8a8a8" stroke="#a8a8a8" stroke-width="1.51"/><path d="M-270,-30L-90,-30L-90,-210Z" fill="#ebebeb" stroke="#ebebeb" stroke-width="1.51"/><path d="M-270,-210L-270,-30L-90,-210Z" fill="#f2f2f2" stroke="#f2f2f2" stroke-width="1.51"/></svg>